<svg width="490" height="835" fill="none" xmlns="http://www.w3.org/2000/svg"><g opacity=".6" clip-path="url(#clip0)"><path d="M44.03 321.729c2.705 0 5.44-.89 7.752-2.767 4.971-4.035 5.74-11.307 2.216-16.651C14 241.664 35.404 148.423 103.904 85.214c75.635-69.793 181.664-79.064 236.363-20.67 4.968 5.304 13.543 5.214 18.376-.518 4.039-4.792 3.561-11.977-.736-16.539-31.316-33.245-76.919-49.304-128.476-45.232-50.636 4.003-101.128 27.063-142.17 64.936-37.489 34.593-63.572 78.753-73.45 124.345-9.972 46.039-2.872 90.33 19.993 124.715 2.359 3.556 6.255 5.478 10.226 5.478zm700.847-1.634c3.971 0 7.867-1.922 10.229-5.476 22.865-34.385 29.965-78.676 19.991-124.715-9.877-45.594-35.963-89.755-73.451-124.345C660.604 27.684 610.113 4.622 559.476.62c-51.558-4.07-97.165 11.99-128.479 45.235-4.296 4.561-4.774 11.745-.736 16.535 4.832 5.734 13.406 5.826 18.377.522C503.336 4.514 609.369 13.787 685.002 83.58c68.502 63.21 89.905 156.455 49.905 217.102-3.524 5.342-2.755 12.614 2.216 16.646a12.255 12.255 0 007.754 2.767zM549.61 835c6.275 0 12.651-.315 19.12-.949 50.552-4.953 100.594-28.961 140.906-67.601 36.82-35.293 62.057-79.936 71.063-125.708 9.092-46.217 1.149-90.368-22.367-124.316-3.949-5.696-11.856-7.019-17.454-2.826-5.367 4.022-6.183 11.734-2.393 17.266 41.039 59.889 21.405 153.435-45.831 217.878-42.371 40.613-95.013 61.726-142.774 61.728-35.976.002-69.179-11.975-93.154-36.616-5.069-5.212-13.647-4.953-18.367.873-3.943 4.864-3.329 12.035 1.051 16.51 27.927 28.55 66.536 43.76 110.2 43.761zm-315.221-1.636c43.63.002 82.209-15.183 110.137-43.689 4.716-4.814 5.028-12.683.306-17.489-4.843-4.929-12.764-4.886-17.556.037-23.971 24.639-57.182 36.615-93.151 36.616-47.766.002-100.401-21.11-142.776-61.728-67.412-64.614-86.975-158.485-45.503-218.352 4.139-5.974 2.238-14.334-4.386-17.847-5.537-2.937-12.462-.951-16.016 4.211-23.34 33.904-31.203 77.918-22.139 123.985 9.004 45.771 34.243 90.416 71.062 125.708 40.312 38.638 90.355 62.646 140.906 67.601 6.461.632 12.843.947 19.116.947z" fill="#606673"/><path d="M149.199 199.508s12.43-74.364 28.946-86.173c63.217-45.201 138.87-69.582 218.309-69.582 61.333 0 120.425 14.495 173.304 41.854 33.613 17.39 52.219 71.384 52.219 71.384s66.328 24.078 77.614 39.316c47.079 63.541 72.507 140.02 72.507 220.381 0 61.248-14.752 120.264-42.584 173.029-17.419 33.025-88.995 37.697-88.995 37.697s-7.317 79.846-23.103 91.302c-63.472 46.069-139.583 70.907-219.535 70.907l-1.473-.003c-62.84-.24-123.17-15.44-176.886-43.88-33.475-17.726-42.513-87.801-42.513-87.801s-75.406-8.945-86.61-24.399c-45.65-62.956-70.051-138.211-69.586-216.927.365-61.642 15.496-120.956 43.684-173.866 17.417-32.691 84.702-43.239 84.702-43.239zm248.115 387.024c26.392 0 51.719-7.022 74.044-17.682 19.726-9.42 89.001-17.272 89.001-17.272s-6.368-62.092 1.176-87.6c4.558-15.408 7.004-31.722 7.004-48.608 0-26.607-6.268-52.43-17.108-74.894-10.333-21.418-35.242-72.42-35.242-72.42s-47.631-10.426-71.736-17.275a173.087 173.087 0 00-47.141-6.573c-26.784 0-52.13 6.147-74.705 17.108-14.735 7.153-65.438 21.868-65.438 21.868s-15.329 53.143-24.263 84.004c-4.38 15.133-6.818 31.64-6.818 48.182 0 25.743 15.408 71.063 15.408 71.063s8.815 78.03 9.407 78.968c0 0 61.235 2.533 93.519 12.884 16.5 5.292 34.629 8.247 52.892 8.247z" fill="#FDBE03"/><path d="M64.497 242.75c17.416-32.694 97.134-117.603 113.649-129.412 63.216-45.203 138.87-69.584 218.31-69.584 6.225 0 12.421.19 18.597.486-72.462 3.577-141.132 27.52-199.28 69.098-16.517 11.809-96.232 96.718-113.65 129.412-28.188 52.912-43.318 112.224-43.684 173.866-.466 78.715 23.937 153.969 69.587 216.927 11.207 15.454 95.649 94.476 129.124 112.2 48.798 25.839 103.067 40.706 159.707 43.397-6.299.313-12.623.486-18.974.486l-1.473-.003c-62.841-.24-123.171-15.44-176.885-43.88-33.476-17.726-117.919-96.746-129.124-112.2-45.648-62.956-70.051-138.212-69.587-216.927.366-61.643 15.494-120.956 43.683-173.866z" fill="#FFA722"/><path d="M561.656 462.956c.357.203 162.354 121.301 162.354 121.301 1.572 1.174 4.336 3.396 5.261 4.991-17.383 33.525-40.839 65.704-68.164 93.213-13.504 13.595-28.461 24.086-43.55 35.289a14.072 14.072 0 01-3.252-2.471S471.728 569.857 471.156 568.868c43.209-20.601 76.543-59.417 90.5-105.912zm-10.28-122.396c-14.796-32.329-53.995-64.607-54.022-64.627-25.391-18.26-51.695-24.795-52.909-25.143l120.51-161.133c1.754-2.321 3.194-3.573 4.791-4.497 33.538 17.377 64.587 39.908 92.106 67.221a378.711 378.711 0 0137.224 42.939 14.012 14.012 0 01-2.472 3.249c-.002 0-145.083 141.86-145.228 141.991zm-309.88 145.867c20.222 42.821 57.165 77.461 102.928 91.85-.377.77-124.54 166.082-126.135 167.006-33.538-17.377-64.045-40.737-91.564-68.052-13.6-13.499-25.146-28.526-36.354-43.606.646-1.168 149.179-146.546 151.125-147.198z" fill="#F7F5F5"/><path d="M113.281 610.983s42.377 52.75 55.976 66.249c19.298 19.156 40.075 36.357 62.328 50.922-7.918 10.392-12.985 16.946-13.298 17.129-33.538-17.377-64.045-40.737-91.564-68.053-13.6-13.498-25.146-28.525-36.354-43.606.189-.34 4.79-4.856 22.912-22.641z" fill="#ECEDEF"/><path d="M133.303 148.545c13.503-13.595 30.248-24.388 45.338-35.59 0 0-.116-.153.866.85 0 0 143.468 146.924 143.716 147.222-43.2 21.099-76.819 59.292-90.214 106.295-.156-.108-163.203-122.494-163.203-122.494-1.573-1.174-2.74-1.993-4.989-3.629 17.383-33.525 41.162-65.144 68.486-92.654z" fill="#F7F5F5"/><path d="M133.302 148.545c13.504-13.595 30.328-24.412 45.415-35.615 1.17.648 7.128 7.367 17.121 17.599a380.4 380.4 0 00-24.909 22.922c-27.326 27.509-51.103 59.128-68.486 92.654-3.477 6.132-9.038 16.421-9.444 16.131-14.277-10.203-23.193-17.41-23.193-17.41-1.573-1.174-2.394-1.694-4.643-3.33 17.385-33.524 40.816-65.442 68.139-92.951z" fill="#ECEDEF"/></g><defs><clipPath id="clip0"><path fill="#fff" transform="matrix(-1 0 0 1 784 0)" d="M0 0h784v835H0z"/></clipPath></defs></svg>