<svg width="34" height="34" fill="none" xmlns="http://www.w3.org/2000/svg"><path d="M8.215 33.004H6.043c-.64 0-1.162-.521-1.162-1.162V2.158c0-.64.521-1.162 1.162-1.162h8.629a.498.498 0 100-.996H6.043a2.16 2.16 0 00-2.158 2.158v29.684A2.16 2.16 0 006.043 34h2.172a.498.498 0 000-.996zM29.97 7.019L23.095.146A.506.506 0 0022.744 0h-5.748a.498.498 0 100 .996h5.25v4.715a2.16 2.16 0 002.158 2.158h4.715v23.973c0 .64-.521 1.162-1.162 1.162H10.54a.498.498 0 100 .996h17.417a2.16 2.16 0 002.158-2.158V7.372a.504.504 0 00-.146-.353zm-5.566-.146c-.64 0-1.162-.521-1.162-1.162V1.7l5.173 5.172h-4.01z" fill="#1C5BF6"/><path d="M25.633 10.943H8.367a.498.498 0 000 .996h17.266a.498.498 0 100-.996zm0 4.427H8.367a.498.498 0 000 .996h17.266a.498.498 0 100-.996zm0 4.427H8.367a.498.498 0 100 .996h17.266a.498.498 0 100-.996zm0 4.427H8.367a.498.498 0 100 .996h17.266a.498.498 0 100-.996z" fill="#1C5BF6"/></svg>