<svg width="37" height="37" fill="none" xmlns="http://www.w3.org/2000/svg"><g clip-path="url(#clip0)" fill="#1C5BF6"><path d="M31.457 3.097L18.97.057a2 2 0 00-.942 0L5.543 3.096a1.986 1.986 0 00-1.52 1.934v17.23c0 1.236.235 2.434.7 3.561a17.846 17.846 0 002.787 4.59.542.542 0 00.832-.695 16.751 16.751 0 01-2.617-4.307 8.23 8.23 0 01-.618-3.15V5.032c0-.42.285-.782.693-.881l12.485-3.04a.912.912 0 01.43 0L31.2 4.15c.408.1.692.462.692.881v17.23a8.23 8.23 0 01-.617 3.148c-1.201 2.92-4.426 8.163-12.524 10.472a.916.916 0 01-.502 0c-3.262-.93-6.043-2.429-8.266-4.453a.542.542 0 10-.73.802c2.348 2.138 5.274 3.717 8.7 4.693a1.997 1.997 0 001.095 0c8.538-2.434 11.953-8 13.23-11.101a9.31 9.31 0 00.699-3.561V5.03c0-.92-.625-1.716-1.52-1.934z"/><path d="M29.367 18.477c.3 0 .542-.242.542-.542V6.871c0-.585-.397-1.09-.965-1.229l-10.145-2.47a1.268 1.268 0 00-.598 0L8.057 5.642a1.261 1.261 0 00-.966 1.229v14.69a9.36 9.36 0 001.135 4.483c.294.539.627 1.066.99 1.566 2.073 2.868 5.068 4.94 8.902 6.16a1.254 1.254 0 00.764 0c3.834-1.22 6.829-3.292 8.903-6.16a14.255 14.255 0 001.875-3.532c.165-.464.249-.952.249-1.449v-2.25a.542.542 0 10-1.084 0v2.25c0 .373-.063.739-.186 1.086-.276.776-.8 1.97-1.733 3.26-1.934 2.676-4.745 4.614-8.353 5.762a.18.18 0 01-.106 0c-3.608-1.148-6.419-3.086-8.353-5.762a13.743 13.743 0 01-.917-1.45 8.28 8.28 0 01-1.002-3.964V6.871a.18.18 0 01.138-.176l10.144-2.47a.18.18 0 01.086 0l10.144 2.47a.18.18 0 01.138.176v11.064c0 .3.242.542.542.542z"/><path d="M26.845 14.373h-1.204a.542.542 0 100 1.084h1.204a.542.542 0 100-1.084zm0-1.797h-1.204a.542.542 0 100 1.085h1.204a.542.542 0 100-1.085zm0-1.796h-1.204a.542.542 0 100 1.084h1.204a.542.542 0 100-1.084zM11.36 14.373h-1.205a.542.542 0 000 1.084h1.204a.542.542 0 100-1.084zm0-1.797h-1.205a.542.542 0 000 1.085h1.204a.542.542 0 100-1.085zm0-1.796h-1.205a.542.542 0 100 1.084h1.204a.542.542 0 100-1.084z"/></g><defs><clipPath id="clip0"><path fill="#fff" d="M0 0h37v37H0z"/></clipPath></defs></svg>