<?xml version="1.0" encoding="utf-8"?><svg xmlns="http://www.w3.org/2000/svg" xmlns:xlink="http://www.w3.org/1999/xlink"><symbol viewBox="0 0 17 15" id="telegram" xmlns="http://www.w3.org/2000/svg"><path d="M6.67 9.886l-.28 4.188c.402 0 .576-.183.785-.403l1.886-1.909 3.909 3.031c.717.423 1.222.2 1.415-.698l2.566-12.729C17.18.242 16.569-.196 15.87.08L.79 6.193c-1.03.423-1.014 1.03-.176 1.306l3.856 1.27 8.956-5.934c.421-.295.804-.132.489.164L6.671 9.886z"/></symbol><symbol viewBox="0 0 15 15" id="whatsapp" xmlns="http://www.w3.org/2000/svg"><path d="M12.815 2.18A7.438 7.438 0 007.53 0C3.415 0 .064 3.334.063 7.432c0 1.31.343 2.59.997 3.716L0 15l3.96-1.034a7.49 7.49 0 003.568.905h.003c4.117 0 7.467-3.334 7.469-7.433a7.37 7.37 0 00-2.185-5.258zM7.53 13.616H7.53a6.223 6.223 0 01-3.16-.861l-.226-.134-2.35.613.627-2.28-.147-.233a6.14 6.14 0 01-.95-3.288c.002-3.406 2.787-6.178 6.21-6.178a6.18 6.18 0 014.39 1.812 6.127 6.127 0 011.816 4.37c-.001 3.407-2.786 6.179-6.208 6.179zm3.405-4.627c-.186-.093-1.104-.542-1.275-.604-.17-.062-.295-.093-.42.093-.124.185-.482.604-.59.728-.11.124-.218.14-.405.046-.187-.093-.788-.289-1.5-.922a5.606 5.606 0 01-1.039-1.286c-.108-.186 0-.277.082-.38.202-.249.404-.51.467-.634.062-.124.03-.233-.016-.326-.047-.093-.42-1.007-.575-1.379-.152-.362-.306-.313-.42-.319A7.496 7.496 0 004.887 4a.687.687 0 00-.498.232c-.17.186-.653.635-.653 1.55 0 .914.67 1.797.762 1.92.094.125 1.316 2 3.188 2.805.446.192.793.306 1.064.391a2.57 2.57 0 001.176.074c.358-.053 1.104-.45 1.26-.883.155-.434.155-.806.108-.883-.047-.078-.171-.124-.358-.217z"/></symbol></svg>