<svg xmlns="http://www.w3.org/2000/svg" viewBox="0 0 500 500" style="animation:hand-move 2s ease-out infinite"><path fill="#1c5bf6" d="M401.8 262.6c-9.9-53.8-47.8-63.4-65.9-64.9-13.6-16.3-33-25.2-55.4-25.2-4.8 0-9.7.4-14.6 1.2-13.2-14.5-31.5-22.4-52.3-22.4-15.7 0-29.6 4.5-39.1 9.6l-39-112.2c-8-23.3-29-37.9-54.8-37.9-19.5 0-37.9 8.5-49.1 22.6C20.7 46.9 18 63.9 23.8 81L73 222.8c-7 3.7-13.2 8.6-18.3 14.5-10 11.6-16.1 26.9-17.9 45.6-2.7 27.7 7.3 58.7 29.7 91.9 15.3 22.4 32.1 39.9 39.1 46.7l23.1 49.6c5.7 12.1 18.6 19.8 33 19.8h153.9c17.6 0 32.5-11.3 35.4-27.1l.2-1 6.5-49.4 1-2.2c34.5-71.9 48.7-120.5 43.6-148.6h-.5zm-68.1 143.6c-.3.7-.6 1.5-.7 2.3l-6.8 51.4c-.9 4.9-5.6 8.3-11 8.3H161.6c-4.5 0-8.5-2.2-10.3-6l-24.2-51.6c-.5-1.1-1.2-2.1-2.2-3C115.1 398 56 338.9 61.2 285c3.1-31.9 20.1-42.3 31.6-45.6 5.8-1.7 9-7.5 7.2-12.8L47.3 74.3C39 50.1 60 33.8 80.7 33.8c13.1 0 26.1 6.6 31.3 21.9l45.2 130c1.6 4.6 6.2 7.2 10.8 7.2 3.2 0 6.5-1.2 8.7-4 1.9-2.3 4.1-4.4 6.8-6.3 5.9-4.2 17.5-8.6 30.1-8.6 13 0 27.1 4.7 37.3 19.2 2.2 3 5.8 4.8 9.5 4.8 1 0 2.1-.1 3.1-.4 4.5-1.2 10.4-2.3 17-2.3 12.7 0 27.7 4.2 38.7 20.2 2.1 3 5.6 4.8 9.5 4.8h1.5c13.2 0 39.8 5.3 47.3 46.3 7 38.1-38.5 128.6-43.7 139.8l-.1-.2z"/><path class="icon-swipe-arrow" fill="#1c5bf6" d="M232.9 76.6H353l-26.4 24.3c-4.8 4.4-4.8 11.6 0 16 2.4 2.2 5.7 3.3 8.7 3.3 3.3 0 6.3-1 8.7-3.2l46-42.2c4.8-4.4 4.8-11.6 0-16l-47.4-43.2c-4.8-4.4-12.6-4.4-17.4 0s-4.8 11.6 0 16l24.6 22.6h-117c-6.8 0-12.3 5-12.3 11.3.1 6.1 5.6 11.1 12.4 11.1z" style="animation:arrow-move 2s ease-out infinite"/><style>@keyframes hand-move{0%{transform:translateX(0)}50%{transform:translateX(.5em)}}@keyframes arrow-move{0%{transform:translateX(0);opacity:1}50%{transform:translateX(.25em);opacity:1}75%{transform:translateX(.25em);opacity:0}}</style></svg>