<svg width="105" height="105" fill="none" xmlns="http://www.w3.org/2000/svg"><path d="M30.631 90.517h11.007c3 0 5.431-2.431 5.431-5.43V66.982c0-1-.81-1.81-1.81-1.81H34.686a3.62 3.62 0 01-3.15-1.829L19.153 41.656a3.678 3.678 0 00-1.031-1.14l-4.599-.688H1.81c-1 0-1.81.81-1.81 1.81v47.069c0 1 .81 1.81 1.81 1.81h28.821z" fill="#FDBE03"/><path d="M16.823 41.466l11.26-8.196a10.965 10.965 0 004.503-8.87V7.202L16.293 0 0 7.194v17.199a10.965 10.965 0 004.502 8.87l11.26 8.196a.905.905 0 001.061.007z" fill="#3B97D3"/><path d="M0 47.069h12.113c.343 0 .656.193.81.5l8.146 16.293a.905.905 0 01-.81 1.31H0V47.07z" fill="#B0D3F0"/><path d="M18.103 105c7 0 12.673-5.674 12.673-12.672 0-7-5.674-12.673-12.673-12.673S5.431 85.33 5.431 92.328C5.43 99.326 11.104 105 18.103 105z" fill="#35495E"/><path d="M18.104 97.759a5.431 5.431 0 100-10.863 5.431 5.431 0 000 10.863z" fill="#BDC3C7"/><path d="M18.104 99.569a7.241 7.241 0 110-14.483 7.241 7.241 0 010 14.483zm0-10.862a3.62 3.62 0 100 7.241 3.62 3.62 0 000-7.241z" fill="#2C2F38"/><path d="M64.397 56.068l6.442-11.597a.905.905 0 00-1.24-1.225l-8.35 4.771a.905.905 0 01-1.35-.867l1.35-14.86a.905.905 0 00-1.638-.609l-6.374 8.925a.905.905 0 01-1.474 0l-6.374-8.925a.905.905 0 00-1.63.608L45.11 47.15a.905.905 0 01-1.35.867l-8.35-4.772a.905.905 0 00-1.24 1.226l6.441 11.597a3.62 3.62 0 003.158 1.863H61.23a3.62 3.62 0 003.166-1.863z" fill="#E57E25"/><path d="M52.5 57.931c-.28.003-.556-.06-.807-.181l-3.621-1.81a1.811 1.811 0 011.618-3.24l3.621 1.81a1.81 1.81 0 01-.811 3.421z" fill="#F0C419"/><path d="M52.5 57.931c-1 0-1.81-.81-1.81-1.81V50.69a1.81 1.81 0 013.62 0v2.502l1.002-.502a1.811 1.811 0 111.618 3.24l-3.62 1.811a1.81 1.81 0 01-.81.19z" fill="#F0C419"/><path d="M12.672 30.776c-.48 0-.94-.19-1.28-.53l-5.43-5.431a1.81 1.81 0 012.56-2.56l3.982 3.982 11.405-14.674a1.811 1.811 0 112.86 2.223L14.098 30.079a1.81 1.81 0 01-1.312.697h-.113z" fill="#B0D3F0"/><path d="M47.069 66.983v5.43h-5.431c-1 0-1.81-.81-1.81-1.81v-5.43h5.43c1 0 1.81.81 1.81 1.81z" fill="#E64C3C"/><path d="M74.369 90.517H63.362a5.43 5.43 0 01-5.431-5.43V66.982c0-1 .81-1.81 1.81-1.81h10.573a3.62 3.62 0 003.15-1.829l12.382-21.688a3.68 3.68 0 011.032-1.14l4.599-.688h11.713c.999 0 1.81.81 1.81 1.81v47.069c0 1-.811 1.81-1.81 1.81H74.369z" fill="#2980BA"/><path d="M105 47.069H92.887a.905.905 0 00-.81.5l-8.146 16.293a.905.905 0 00.81 1.31H105V47.07z" fill="#B0D3F0"/><path d="M86.896 105c7 0 12.673-5.674 12.673-12.672 0-7-5.674-12.673-12.673-12.673-6.998 0-12.672 5.674-12.672 12.673 0 6.998 5.674 12.672 12.672 12.672z" fill="#35495E"/><path d="M86.897 97.759a5.431 5.431 0 100-10.862 5.431 5.431 0 000 10.862z" fill="#BDC3C7"/><path d="M79.655 92.328a7.241 7.241 0 1114.483 0 7.241 7.241 0 01-14.483 0zm3.621 0a3.62 3.62 0 107.241 0 3.62 3.62 0 00-7.241 0z" fill="#2C2F38"/><path d="M57.93 66.983v5.43h5.432c1 0 1.81-.81 1.81-1.81v-5.43h-5.43c-1 0-1.811.81-1.811 1.81z" fill="#F29C1F"/></svg>