<svg width="105" height="105" fill="none" xmlns="http://www.w3.org/2000/svg"><path d="M82.031 78.75v-8.203a8.004 8.004 0 00-6.434-7.849l-26.378-5.276a60.101 60.101 0 00-47.25-22.969H1.64v54.14h39.375L82.03 78.75z" fill="#FDBE03"/><path d="M82.031 82.031V70.547a8.004 8.004 0 00-6.434-7.849l-26.378-5.276a60.089 60.089 0 00-42.657-22.77v8.004a39.375 39.375 0 0039.376 39.375H82.03z" fill="#FCCD40"/><path d="M1.64 82.031h33.934v6.563H1.64m65.626 0H82.03a4.922 4.922 0 000-9.844H71.193" fill="#606160"/><path d="M73.828 88.594a19.688 19.688 0 10-39.375 0h39.375z" fill="#898989"/><path d="M54.14 101.719c7.25 0 13.126-5.876 13.126-13.125S61.389 75.469 54.14 75.469c-7.25 0-13.125 5.876-13.125 13.125s5.876 13.125 13.125 13.125z" fill="#606160"/><path d="M54.14 75.469a13.058 13.058 0 00-7.489 2.354 13.116 13.116 0 0018.26 18.26 13.117 13.117 0 00-10.77-20.614z" fill="#747574"/><path d="M6.563 41.016v16.406h34.453A43.71 43.71 0 006.88 41.016h-.319z" fill="#93D3F5"/><path d="M6.563 62.344h6.562v3.281H6.562v-3.281z" fill="#606160"/><path d="M54.14 93.516a4.922 4.922 0 100-9.844 4.922 4.922 0 000 9.844z" fill="#A0A0A0"/><path d="M69.963 31.172h2.224a6.13 6.13 0 005.101-2.73l3.792-5.686a3.205 3.205 0 015.873 1.778 5.667 5.667 0 01-.952 3.143l-3.734 5.603a8.758 8.758 0 01-5.158 3.634l-3.281.82 6.563 6.563 4.921-7.383a20.344 20.344 0 013.915-4.352l6.287-5.232a4.624 4.624 0 012.953-1.072 3.244 3.244 0 011.893 5.885l-7.009 5.007a18.427 18.427 0 00-5.085 5.506l-2.954 4.922 3.36.84A4.747 4.747 0 0192.24 52.5l1.116 10.034c.108.966.162 1.937.164 2.909a3.462 3.462 0 01-3.467 3.463 3.465 3.465 0 01-3.445-3.08L85.312 54.14H83.58a23.742 23.742 0 01-21.236-13.125l-8.804 5.868c-.68.453-1.48.694-2.297.693a4.131 4.131 0 01-3.281-1.607l-4.302-5.578a3.48 3.48 0 012.476-5.939 3.48 3.48 0 012.46 1.02l3.904 3.902 3.281-2.05 7.76-4.85" fill="#FFDAB6"/><path d="M30.219 34.148l-11.485-8.203a1.64 1.64 0 01.953-2.976H33.27l2.907-8.722a1.64 1.64 0 011.44-1.122 1.664 1.664 0 011.586.904l4.922 9.844s1.19 1.75-.125 2.627c-1.5 1-2.812-1.16-2.812-1.16l-3.15-6.302-2.028 6.087a1.64 1.64 0 01-1.557 1.125h-9.645l7.317 5.227S33.78 32.831 33 34c-1 1.5-2.781.148-2.781.148zM50.86 16.406s0 1.865-1.36 2.094c-1.62.273-1.922-2.094-1.922-2.094V3.281A1.641 1.641 0 0150.5 2.256l5.742 7.168 11.94-5.97a1.64 1.64 0 012.296 1.986l-3.281 9.844S66.327 17.358 65 17c-1.696-.458-.92-2.753-.92-2.753l2.029-6.087-9.594 4.8a1.64 1.64 0 01-2.015-.442l-3.64-4.56v8.448zm41.73 60.481s-1.406-.988-.59-2.387c.734-1.257 2.276-.425 2.276-.425l8.198 4.917s1.622.816 1.026 2.008c-1 1.5-2.712.804-2.712.804l-8.199-4.917zm-2.227 3.967S90 79.5 91.5 79s2.02.951 2.02.951l3.285 11.49S97 92.5 96 93c-2 .5-2.352-.656-2.352-.656l-3.285-11.49z" fill="#E57E25"/><path d="M75.597 62.698l-3.41-.682v3.609a6.563 6.563 0 006.563 6.563h3.281v-1.641a8.004 8.004 0 00-6.434-7.849z" fill="#93D3F5"/><path d="M10.208 41.158A16.406 16.406 0 0026.25 54.141h11.842a43.693 43.693 0 00-27.884-12.983z" fill="#BCE3FA"/><path d="M73.828 37.734l3.281-.82a8.705 8.705 0 002.496-1.093l-3.265-6.273a6.13 6.13 0 01-4.153 1.624h-2.224l-6.422 1.302-7.76 4.85-.88.551 2.271 6.586 5.172-3.445a23.732 23.732 0 0012.162 11.308l4.769-9.143-5.447-5.447z" fill="#2980BA"/><path d="M86.61 65.825a3.464 3.464 0 006.906-.382 26.522 26.522 0 00-.164-2.909L92.239 52.5a4.726 4.726 0 00-.89-2.263l-6.028 3.976 1.29 11.612z" fill="#FFDAB6"/><path d="M85.312 36.914l-4.921 7.383-1.116-1.116-4.77 9.144a23.705 23.705 0 009.075 1.816h1.732l.009.072 6.027-3.975a4.725 4.725 0 00-2.676-1.82l-3.36-.84 2.954-4.922a18.33 18.33 0 012.6-3.348l-4.241-4.077c-.466.538-.904 1.1-1.313 1.683z" fill="#747574"/><path d="M98.467 26.258a4.623 4.623 0 00-2.953 1.071l-6.287 5.232a20.26 20.26 0 00-2.609 2.67l4.248 4.077a18.32 18.32 0 012.486-2.158l7.012-5.009a3.246 3.246 0 00.022-5.263 3.245 3.245 0 00-1.916-.62h-.003zm-32.842 6.555a6.562 6.562 0 100-13.125 6.562 6.562 0 000 13.125z" fill="#FFDAB6"/><path d="M71.579 23.525a6.55 6.55 0 10-9.071 8.467l1.476-7.383 7.595-1.084z" fill="#606160"/></svg>