<svg width="621" height="37" fill="none" xmlns="http://www.w3.org/2000/svg"><path d="M6 36.773L11.774 31 6 25.227.226 31 6 36.773zM307.5 1l.656-.755a1 1 0 00-1.312 0L307.5 1zM615 36.773L620.773 31 615 25.227 609.227 31 615 36.773zM312.356 5.223l.656-.755-.656.755zm-9.712 0l-.656-.755.656.755zM7 31v-.87H5V31h2zm19-19.87h263.521v-2H26v2zm277.3-5.153l4.856-4.222-1.312-1.51-4.856 4.223 1.312 1.51zm3.544-4.222l4.856 4.222 1.312-1.51-4.856-4.222-1.312 1.51zm18.635 9.375H595v-2H325.479v2zM614 30.13V31h2v-.87h-2zm-19-19c10.493 0 19 8.507 19 19h2c0-11.598-9.402-21-21-21v2zM311.7 5.977a20.998 20.998 0 0013.779 5.153v-2a19 19 0 01-12.467-4.662l-1.312 1.51zm-22.179 5.153c5.064 0 9.958-1.83 13.779-5.153l-1.312-1.51a19 19 0 01-12.467 4.663v2zM7 30.13c0-10.493 8.507-19 19-19v-2c-11.598 0-21 9.402-21 21h2z" fill="#D8DDDB"/></svg>