<svg width="37" height="37" fill="none" xmlns="http://www.w3.org/2000/svg"><path d="M15.046 8.418l.48-.48-.465-1.396a.577.577 0 01-.03-.183V3.252a2.098 2.098 0 012.096-2.096h3.107a.578.578 0 01.578.578v4.914c0 .512-.193 1.005-.543 1.379l.721 1.442c.267.534.392 1.128.362 1.724l-.398 7.952 1.471 1.89a.578.578 0 01-.047.764l-.202.202a2.737 2.737 0 01-2.52.742v5.007H18.5v-5.562a2.81 2.81 0 01-.207-.187l-2.684-2.683v1.205a.868.868 0 00.868.868h.289v13.152a.145.145 0 00.144.145h3.902v-.115a.866.866 0 00-.593-.823l-.657-.219H18.5v-4.625h1.156v3.469a.57.57 0 01.183.03l.746.248a2.02 2.02 0 011.384 1.92v.693a.578.578 0 01-.578.578h-4.48a1.302 1.302 0 01-1.302-1.301V22.352a2.027 2.027 0 01-1.156-1.829v-8.382h1.156v5.182a.862.862 0 00.254.613l3.247 3.247a1.592 1.592 0 002.08.147l-3.725-4.788a.578.578 0 01-.121-.355v-5.203H18.5v5.005l1.367 1.757.33-6.61a2.317 2.317 0 00-.241-1.15l-.657-1.314h-2.872l-.564.563a.861.861 0 00-.254.614v1.135h-1.156V9.85a2.011 2.011 0 01.593-1.431zm2.08-6.105a.94.94 0 00-.939.939v1.951h.29a.29.29 0 00.289-.289A1.447 1.447 0 0118.21 3.47h1.445V2.313h-2.53zm1.663 5.203a.868.868 0 00.867-.868V4.625h-1.445a.29.29 0 00-.29.29 1.447 1.447 0 01-1.444 1.444h-.258l.385 1.157h2.185zm-17.04.902l.48-.48-.465-1.396a.578.578 0 01-.03-.183V3.252A2.098 2.098 0 013.83 1.156h1.373v1.157H3.83a.94.94 0 00-.94.939v1.951h.29a.29.29 0 00.289-.289A1.447 1.447 0 014.914 3.47h2.602v-.29a.868.868 0 00-.868-.866H6.36V1.155h.29A2.026 2.026 0 018.671 3.18v.867a.578.578 0 01-.578.578h-.578v2.023c0 .512-.194 1.005-.544 1.379l.721 1.442c.267.534.392 1.128.362 1.724l-.397 7.952 1.47 1.89a.578.578 0 01-.047.764l-.202.202a2.738 2.738 0 01-2.52.742v9.632a.57.57 0 01.183.03l.746.248a2.02 2.02 0 011.384 1.92v.693a.578.578 0 01-.578.578h-4.48a1.302 1.302 0 01-1.302-1.301v-9.105H3.47v9.105a.145.145 0 00.144.145h3.903v-.115a.866.866 0 00-.593-.823l-.657-.219H5.203V22.188a2.787 2.787 0 01-.207-.187l-2.684-2.683v1.205a.868.868 0 00.868.868h.289v2.89H2.312v-1.93a2.027 2.027 0 01-1.156-1.828V9.85a2.01 2.01 0 01.593-1.431zm2.876-3.504A1.447 1.447 0 013.18 6.36h-.258l.385 1.157h2.185a.868.868 0 00.867-.868V4.625H4.914a.29.29 0 00-.289.29zm-2.313 12.41a.862.862 0 00.254.612l3.247 3.247a1.592 1.592 0 002.08.147l-3.724-4.788a.578.578 0 01-.122-.355v-5.203h1.156v5.005l1.367 1.757.33-6.61a2.317 2.317 0 00-.241-1.15l-.657-1.314H3.13l-.564.563a.862.862 0 00-.254.614v7.474zm26.031-8.906l.48-.48-.465-1.396a.58.58 0 01-.03-.183V3.252a2.099 2.099 0 012.096-2.096h3.396a2.026 2.026 0 012.024 2.024v.867a.578.578 0 01-.578.578h-1.157v2.023c0 .512-.194 1.005-.543 1.379l.721 1.442c.267.534.391 1.128.362 1.724l-.078 1.555-1.155-.058.078-1.554a2.316 2.316 0 00-.241-1.15l-.657-1.314h-2.872l-.564.563a.863.863 0 00-.254.614v7.474a.862.862 0 00.254.613l3.247 3.247a1.592 1.592 0 002.08.147l-3.725-4.788a.578.578 0 01-.121-.355v-5.203h1.156v5.005l1.366 1.757.196-3.9 1.154.058-.262 5.24 1.471 1.892a.578.578 0 01-.048.763l-.201.202a2.738 2.738 0 01-2.52.742v9.632a.57.57 0 01.183.03l.746.248a2.02 2.02 0 011.384 1.92v.693a.578.578 0 01-.578.578h-4.481a1.302 1.302 0 01-1.3-1.301v-9.105h1.155v9.105a.144.144 0 00.145.145h3.902v-.115a.867.867 0 00-.593-.823l-.657-.219h-1.062V22.188a2.77 2.77 0 01-.207-.187l-2.684-2.683v1.205a.869.869 0 00.867.868h.29v2.89h-1.157v-1.93a2.026 2.026 0 01-1.156-1.828V9.85a2.011 2.011 0 01.593-1.431zm6.345-4.95V3.18a.868.868 0 00-.868-.868h-3.396a.94.94 0 00-.94.94v1.951h.29a.29.29 0 00.288-.289 1.447 1.447 0 011.446-1.445h3.18zm-2.602 4.048a.868.868 0 00.867-.868V4.625h-1.445a.29.29 0 00-.29.29 1.447 1.447 0 01-1.445 1.444h-.257l.385 1.157h2.185z" fill="#1C5BF6"/></svg>