<svg width="43" height="43" fill="none" xmlns="http://www.w3.org/2000/svg"><path d="M25.531 25.531H8.734a.672.672 0 00-.475.197L.197 33.791l.95.95 7.866-7.866h15.78c-.14.797-.58 2.016-1.95 2.016h-7.39v1.343h7.39c2.658 0 3.36-2.637 3.36-4.03 0-.372-.3-.673-.672-.673z" fill="#1C5BF6"/><path d="M34.069 21.024a.672.672 0 00-.95 0l-6.047 6.047.95.95 5.519-5.518a2.863 2.863 0 01-.422 3.897l-7.866 7.866H11.422a.672.672 0 00-.475.197l-4.703 4.703.95.95 4.506-4.507h13.831c.179 0 .35-.07.475-.197l8.063-8.063c2.502-2.501 1.094-5.23 0-6.325z" fill="#1C5BF6"/><path d="M21.5 0C9.626 0 0 9.626 0 21.5h1.344c0-11.132 9.024-20.156 20.156-20.156S41.656 10.368 41.656 21.5 32.632 41.656 21.5 41.656V43C33.374 43 43 33.374 43 21.5S33.374 0 21.5 0z" fill="#1C5BF6"/><path d="M28.219 12.766h-4.703v1.343h3.08l-6.718 6.72h-3.081v1.343h3.36a.672.672 0 00.474-.197l6.916-6.916v2.41h1.344v-4.032a.672.672 0 00-.672-.671zM7.39 20.828a.672.672 0 00-.474.197L4.9 23.041l.95.95 1.819-1.82h5.097v-1.343H7.39zm8.063 0H14.11v1.344h1.344v-1.344zM5.44 15.323l1.282.403A14.719 14.719 0 0120.828 5.375V4.031A16.058 16.058 0 005.44 15.323z" fill="#1C5BF6"/></svg>