<svg width="517" height="384" fill="none" xmlns="http://www.w3.org/2000/svg"><g opacity=".1" clip-path="url(#clip0)"><mask id="a" style="mask-type:alpha" maskUnits="userSpaceOnUse" x="0" y="0" width="517" height="517"><circle cx="258.5" cy="258.5" r="258.5" fill="#47B8F8"/></mask><g mask="url(#a)"><path fill-rule="evenodd" clip-rule="evenodd" d="M469.257 408.214C499.32 365.969 517 314.299 517 258.5c0-52.028-15.371-100.467-41.819-141.022l-83.518 83.518c7.624 17.63 11.849 37.074 11.849 57.504 0 24.328-5.991 47.257-16.577 67.391l82.322 82.323zm-62.651 62.179l-82.523-82.523c-19.695 10.003-41.981 15.642-65.583 15.642-20.43 0-39.874-4.225-57.504-11.849l-83.518 83.518C158.033 501.629 206.472 517 258.5 517c55.093 0 106.161-17.235 148.106-46.607zM52.779 415.05C19.663 371.601 0 317.347 0 258.5c0-55.093 17.235-106.161 46.607-148.106l82.523 82.523c-10.003 19.695-15.642 41.981-15.642 65.583 0 27.44 7.621 53.1 20.863 74.978L52.779 415.05zm56.007-367.307l82.323 82.322c20.134-10.586 43.063-16.577 67.391-16.577 27.44 0 53.1 7.621 74.978 20.863l81.572-81.572C371.601 19.663 317.347 0 258.5 0c-55.799 0-107.469 17.68-149.714 47.743z" fill="#1C5BF6"/></g></g><defs><clipPath id="clip0"><path fill="#fff" d="M0 0h517v384H0z"/></clipPath></defs></svg>