<svg width="168" height="240" fill="none" xmlns="http://www.w3.org/2000/svg"><path d="M16 20A16 16 0 000 36v188a16.002 16.002 0 0016 16h136c4.243 0 8.313-1.686 11.314-4.686 3-3.001 4.686-7.071 4.686-11.314V36a16.002 16.002 0 00-16-16H16z" fill="#898989"/><path d="M152 20H16a15.82 15.82 0 00-8 2.22V64a167.998 167.998 0 00157.956 167.676A15.804 15.804 0 00168 224V36a16.002 16.002 0 00-16-16z" fill="#A0A0A0"/><path d="M96 12a12 12 0 00-24 0h-8a8 8 0 000 16h40a8 8 0 100-16h-8z" fill="#606160"/><path d="M16 44h136v180H16V44z" fill="#93D3F5"/><path d="M152 44H16v71.22A168.33 168.33 0 00124.8 224H152V44z" fill="#BCE3FA"/><path d="M46.344 96A6.344 6.344 0 0140 89.656 13.66 13.66 0 0153.656 76H60l11.496-7.664A49.624 49.624 0 0199.028 60 40.968 40.968 0 01128 72v12a11.998 11.998 0 01-12 12H46.344z" fill="#F7C445"/><path d="M99.028 60a49.63 49.63 0 00-27.532 8.336L60 76h-6.344a13.524 13.524 0 00-13.492 12H108a11.998 11.998 0 0012-12V65.832A40.931 40.931 0 0099.028 60z" fill="#F9D56B"/><path d="M32 123a3 3 0 013-3h10a3 3 0 013 3v10a3 3 0 01-3 3H35a3 3 0 01-3-3v-10zm0 32a3 3 0 013-3h10a3 3 0 013 3v10a3 3 0 01-3 3H35a3 3 0 01-3-3v-10zm0 32a3 3 0 013-3h10a3 3 0 013 3v10a3 3 0 01-3 3H35a3 3 0 01-3-3v-10z" fill="#1C5BF6"/><path d="M64 119a3 3 0 013-3h54a3 3 0 013 3v2a3 3 0 01-3 3H67a3 3 0 01-3-3v-2zm0 16a3 3 0 013-3h42a3 3 0 013 3v2a3 3 0 01-3 3H67a3 3 0 01-3-3v-2zm56 0a3 3 0 013-3h14a3 3 0 013 3v2a3 3 0 01-3 3h-14a3 3 0 01-3-3v-2zm-56 16a3 3 0 013-3h50a3 3 0 013 3v2a3 3 0 01-3 3H67a3 3 0 01-3-3v-2zm64 0a3 3 0 013-3h6a3 3 0 013 3v2a3 3 0 01-3 3h-6a3 3 0 01-3-3v-2zm-68 32a3 3 0 013-3h26a3 3 0 013 3v2a3 3 0 01-3 3H63a3 3 0 01-3-3v-2zm40 0a3 3 0 013-3h26a3 3 0 013 3v2a3 3 0 01-3 3h-26a3 3 0 01-3-3v-2zm-40 16a3 3 0 013-3h42a3 3 0 013 3v2a3 3 0 01-3 3H63a3 3 0 01-3-3v-2z" fill="#F2F2F2"/><path d="M60 104a8 8 0 100-16 8 8 0 000 16zm48 0a8 8 0 100-16 8 8 0 000 16z" fill="#606160"/><path d="M99.028 60c-9.8 0-19.379 2.9-27.532 8.336L60 76h68v-4a40.971 40.971 0 00-28.972-12z" fill="#6CC2F1"/><path d="M99.028 60c-2.352.002-4.7.172-7.028.508V76h8V60.048c-.324-.008-.644-.048-.972-.048z" fill="#F9D56B"/><path d="M104 12h-8a12 12 0 00-24 0h-8a8 8 0 00-7.716 6A8 8 0 0064 24h40a8 8 0 007.716-6A8 8 0 00104 12z" fill="#747574"/></svg>