<svg width="1440" height="439" fill="none" xmlns="http://www.w3.org/2000/svg"><path fill="#1C5BF6" d="M0 0h1440v444H0z"/><g style="mix-blend-mode:color-burn"><g style="mix-blend-mode:multiply" opacity=".15" clip-path="url(#clip0)"><path d="M397.8 72.2v161.764L235 301.6l-4.958-7.178L87 87V72.2c.024-8.164 6.636-14.776 14.8-14.8H383c8.164.024 14.776 6.636 14.8 14.8z" fill="#E8EDFC"/><path d="M375.6 72.2v161.764l-145.558 60.458L87 87V72.2c.024-8.164 6.636-14.776 14.8-14.8h259c8.164.024 14.776 6.636 14.8 14.8z" fill="#fff"/><path d="M368.2 175.8v58.164l-.888 242.794A14.837 14.837 0 01353.4 486.6H72.2c-8.164-.024-14.776-6.636-14.8-14.8v-370c.061-7.92 6.296-14.416 14.208-14.8H279.4l88.8 88.8z" fill="#CAD9FC"/><path d="M346 175.8v58.164l-.888 242.794A14.837 14.837 0 01331.2 486.6h-259c-8.164-.024-14.776-6.636-14.8-14.8v-370c.061-7.92 6.296-14.416 14.208-14.8H257.2l88.8 88.8z" fill="#E8EDFC"/><path d="M368.2 175.8h-74c-8.174 0-14.8-6.626-14.8-14.8V87l88.8 88.8z" fill="#CAD9FC"/><path d="M486.6 274.812v104.562a67.85 67.85 0 01-28.638 55.204l-72.816 51.8a3.552 3.552 0 01-4.292 0l-8.954-6.364-63.862-45.436a67.85 67.85 0 01-28.638-55.204V274.812a3.737 3.737 0 012.22-3.404l90.28-38.998 9.62-4.144a3.455 3.455 0 012.96 0l99.9 43.142a3.737 3.737 0 012.22 3.404z" fill="#E8EDFC"/><path d="M464.4 274.812v104.562a67.847 67.847 0 01-28.638 55.204L371.9 480.014l-63.862-45.436a67.847 67.847 0 01-28.638-55.204V274.812a3.737 3.737 0 012.22-3.404l90.28-38.998 90.28 38.998a3.737 3.737 0 012.22 3.404z" fill="#fff"/><path d="M325.191 410.439A38.291 38.291 0 01309 379.367V291.81l74-31.968 74 31.968v87.557a38.32 38.32 0 01-16.191 31.08L383 451.598l-57.809-41.159z" fill="#955BA5"/><path d="M325.191 410.439A38.291 38.291 0 01309 379.367V291.81l74-31.968 74 31.968v87.557a38.32 38.32 0 01-16.191 31.08L383 451.598l-57.809-41.159z" fill="#A4C2F7"/><path d="M72.2 486.6h22.2c-8.164-.024-14.776-6.636-14.8-14.8v-370c.061-7.92 6.296-14.416 14.208-14.8H109.2V72.2c.024-8.164 6.636-14.776 14.8-14.8h-22.2c-8.164.024-14.776 6.636-14.8 14.8V87H71.608c-7.912.384-14.147 6.88-14.208 14.8v370c.024 8.164 6.636 14.776 14.8 14.8z" fill="#fff"/><path d="M138.8 131.4H94.4a7.4 7.4 0 110-14.8h44.4a7.4 7.4 0 110 14.8zm103.6 0h-66.6a7.4 7.4 0 110-14.8h66.6a7.4 7.4 0 110 14.8zm88.8 81.4H94.4a7.4 7.4 0 110-14.8h236.8a7.4 7.4 0 110 14.8zM198 242.4H94.4a7.4 7.4 0 110-14.8H198a7.4 7.4 0 110 14.8zm133.2 0H227.6a7.4 7.4 0 110-14.8h103.6a7.4 7.4 0 110 14.8zM297.382 272H94.4a7.4 7.4 0 110-14.8h202.982a7.4 7.4 0 110 14.8zM198 301.6H94.4a7.4 7.4 0 110-14.8H198a7.4 7.4 0 110 14.8zm81.4 0h-51.8a7.4 7.4 0 110-14.8h51.8a7.4 7.4 0 110 14.8zm0 29.6h-185a7.4 7.4 0 110-14.8h185a7.4 7.4 0 110 14.8zM198 360.8H94.4a7.4 7.4 0 110-14.8H198a7.4 7.4 0 110 14.8zm81.4 0h-51.8a7.4 7.4 0 110-14.8h51.8a7.4 7.4 0 110 14.8zm.148 29.6H94.4a7.4 7.4 0 110-14.8h185.148a7.4 7.4 0 110 14.8zm39.22 59.2H94.4a7.4 7.4 0 110-14.8h224.368a7.4 7.4 0 110 14.8zM198 420H94.4a7.4 7.4 0 110-14.8H198a7.4 7.4 0 110 14.8zm90.206 0H227.6a7.4 7.4 0 110-14.8h60.606a7.4 7.4 0 110 14.8z" fill="#7FACFA"/><path d="M50 318.8v-222h14.8v222H50z" fill="#fff"/><path d="M57.4 281.8a7.4 7.4 0 00-7.4 7.4v29.6h14.8v-29.6a7.4 7.4 0 00-7.4-7.4zm7.4-185H50V230a7.4 7.4 0 1014.8 0V96.8zM50 259.6a7.785 7.785 0 002.146 5.254l1.11.888c.412.281.86.504 1.332.666.42.214.868.364 1.332.444.49.083.984.132 1.48.148a7.781 7.781 0 005.254-2.146 7.628 7.628 0 001.554-2.442 7.556 7.556 0 00-1.554-8.066 7.643 7.643 0 00-2.442-1.554 7.41 7.41 0 00-2.812-.592 7.786 7.786 0 00-5.254 2.146A7.785 7.785 0 0050 259.6z" fill="#428DFF"/><path d="M353.4 494H72.2c-12.26 0-22.2-9.939-22.2-22.2v-148a7.4 7.4 0 1114.8 0v148a7.4 7.4 0 007.4 7.4h281.2a7.4 7.4 0 006.926-4.892 7.402 7.402 0 0113.972 4.892A22.201 22.201 0 01353.4 494zm14.8-252.636a7.4 7.4 0 01-7.4-7.4v-55.1L276.336 94.4H72.2a7.4 7.4 0 00-7.4 7.4 7.4 7.4 0 11-14.8 0c0-12.26 9.94-22.2 22.2-22.2h207.2a7.4 7.4 0 015.232 2.168l88.8 88.8a7.4 7.4 0 012.168 5.232v58.164a7.4 7.4 0 01-7.4 7.4z" fill="#428DFF"/><path d="M368.2 183.2h-74c-12.261 0-22.2-9.939-22.2-22.2V87a7.401 7.401 0 0112.632-5.232l88.8 88.8A7.4 7.4 0 01368.2 183.2zm-81.4-78.336V161a7.4 7.4 0 007.4 7.4h56.136L286.8 104.864z" fill="#428DFF"/><path d="M368.2 183.2a7.398 7.398 0 01-5.232-2.168l-88.8-88.8a7.4 7.4 0 0110.464-10.464l88.8 88.8A7.402 7.402 0 01368.2 183.2z" fill="#428DFF"/><path d="M397.8 241.364a7.4 7.4 0 01-7.4-7.4V72.2a7.4 7.4 0 00-7.4-7.4H101.8a7.4 7.4 0 00-7.4 7.4V87a7.4 7.4 0 01-14.8 0V72.2c0-12.26 9.94-22.2 22.2-22.2H383c12.261 0 22.2 9.94 22.2 22.2v161.764a7.4 7.4 0 01-7.4 7.4z" fill="#428DFF"/><path d="M383 494a13.211 13.211 0 01-7.659-2.442l-71.602-50.971A75.37 75.37 0 01272 379.366V272.355a7.4 7.4 0 014.44-6.793l103.6-44.755a7.397 7.397 0 015.861 0l103.6 44.755a7.4 7.4 0 014.44 6.793v107.011a75.37 75.37 0 01-31.739 61.221l-71.595 50.963A13.209 13.209 0 01383 494zm-96.2-216.783v102.12a60.543 60.543 0 0025.523 49.165L383 478.845l70.677-50.32a60.546 60.546 0 0025.523-49.159v-102.12L383 235.658l-96.2 41.559z" fill="#428DFF"/><path d="M383 458.998a7.406 7.406 0 01-4.292-1.377l-57.809-41.151a45.716 45.716 0 01-19.299-37.104V291.81a7.402 7.402 0 014.44-6.794l74-31.968a7.406 7.406 0 015.861 0l74 31.968a7.402 7.402 0 014.44 6.794v87.556a45.735 45.735 0 01-19.299 37.104l-57.75 41.151a7.406 7.406 0 01-4.292 1.377zm-53.509-54.583L383 442.511l53.509-38.051a30.918 30.918 0 0013.091-25.094v-82.695L383 267.908l-66.6 28.763v82.695a30.896 30.896 0 0013.091 25.049z" fill="#428DFF"/><path d="M368.2 397.8a7.398 7.398 0 01-4.44-1.48l-29.6-22.2a7.4 7.4 0 118.88-11.84l23.865 17.901 54.716-68.406a7.4 7.4 0 0110.404-1.154 7.4 7.4 0 011.154 10.404l-59.2 74a7.398 7.398 0 01-5.779 2.775z" fill="#428DFF"/></g></g><defs><clipPath id="clip0"><path fill="#fff" transform="translate(50 45)" d="M0 0h444v444H0z"/></clipPath></defs></svg>