<svg width="1440" height="561" fill="none" xmlns="http://www.w3.org/2000/svg"><path fill="#1C5BF6" d="M0 0h1440v561H0z"/><g style="mix-blend-mode:color-burn"><g style="mix-blend-mode:multiply" opacity=".15" clip-path="url(#clip0)"><path d="M119.852 184.641h293.109v318.257c0 5.971-19.078-9.209-19.078-3.035-2.168 2.168-16.489 9.071-25.582 22.547-9.539 6.504 5.203 35.555-6.071 38.59H119.852V184.641z" fill="#E8EDFC"/><path d="M73.796 359.951a6.504 6.504 0 006.504-6.504V188.326a2.258 2.258 0 012.251-2.255h315.367a2.258 2.258 0 012.253 2.255v78.403a6.504 6.504 0 0013.008 0v-78.403c0-6.088-3.593-11.341-8.763-13.788v-14.242c0-6.088-3.591-11.34-8.76-13.788v-14.244c.001-8.417-6.846-15.264-15.263-15.264h-280.32c-8.417 0-15.265 6.847-15.265 15.264v14.244c-5.168 2.448-8.76 7.7-8.76 13.788v14.244c-5.167 2.449-8.757 7.699-8.757 13.786v165.121a6.505 6.505 0 006.505 6.504zm15.26-199.655a2.259 2.259 0 012.257-2.256h297.841a2.259 2.259 0 012.256 2.256v12.768H89.057v-12.768zm8.761-28.032a2.259 2.259 0 012.257-2.256h280.32a2.259 2.259 0 012.256 2.256v12.769H97.817v-12.769z" fill="#428DFF"/><circle cx="259.035" cy="394.934" r="70.676" fill="#A4C2F7"/><path d="M318.242 335.958c-15.789-15.789-36.78-24.483-59.108-24.483-22.328 0-43.32 8.695-59.108 24.483-15.788 15.788-24.484 36.78-24.484 59.108 0 22.329 8.696 43.321 24.484 59.109 15.788 15.788 36.78 24.483 59.108 24.483 22.328 0 43.32-8.695 59.108-24.483 15.788-15.788 24.484-36.78 24.484-59.109 0-22.328-8.696-43.32-24.484-59.108zm-9.198 109.019c-13.332 13.332-31.057 20.674-49.911 20.674-18.854 0-36.579-7.342-49.911-20.674-13.331-13.332-20.674-31.056-20.674-49.911 0-18.854 7.343-36.579 20.674-49.911 13.332-13.331 31.057-20.673 49.911-20.673 18.854 0 36.579 7.342 49.911 20.673 13.331 13.332 20.674 31.057 20.674 49.911 0 18.855-7.343 36.579-20.674 49.911z" fill="#428DFF"/><path d="M460.328 549.897l-29.632-29.631v-79.649a6.504 6.504 0 00-6.504-6.504h-11.013V297.08a6.504 6.504 0 00-13.008 0v137.033h-36.476c14.752-39.684 6.211-86.135-25.631-117.977-38.604-38.604-98.678-42.961-142.135-13.083V207.6a6.504 6.504 0 00-6.504-6.504h-87.6a6.504 6.504 0 00-6.504 6.504v108.624a6.504 6.504 0 006.504 6.504h72.297c-26.797 31.446-33.312 74.36-19.549 111.385H80.3v-50.314a6.504 6.504 0 00-13.008 0v50.314H56.27a6.504 6.504 0 00-6.504 6.56l.972 113.879A6.503 6.503 0 0057.242 561h38.641a6.504 6.504 0 000-13.008H63.691l-.86-100.871h97.549a111.304 111.304 0 0019.823 26.875c21.762 21.761 50.346 32.642 78.931 32.642 17.992 0 35.982-4.314 52.272-12.936l18.699 18.698a6.5 6.5 0 009.197 0l2.834-2.835 13.101 13.102-2.833 2.834a6.503 6.503 0 000 9.197l13.293 13.294H126.235a6.504 6.504 0 000 13.008h255.161l.015-.001a6.504 6.504 0 004.586-11.102L366.2 530.101l27.968-27.967 56.962 56.962a6.489 6.489 0 004.599 1.905 6.505 6.505 0 004.599-11.104zM108.329 214.104h74.592v95.616h-74.592v-95.616zm81.072 250.695c-38.45-38.451-38.45-101.015 0-139.465 19.225-19.225 44.479-28.837 69.732-28.837 25.254 0 50.507 9.612 69.732 28.837 38.451 38.45 38.451 101.014 0 139.465-38.451 38.449-101.014 38.449-139.464 0zm133.438 21.94a111.78 111.78 0 0015.225-12.743 111.918 111.918 0 0012.743-15.224l11.865 11.864-27.968 27.967-11.865-11.864zm28.495 13.63l13.102-13.102 13.101 13.102-13.101 13.101-13.102-13.101zm38.235-12.032l-2.834 2.834-13.101-13.102 2.834-2.835a6.5 6.5 0 000-9.197l-18.698-18.698c.038-.073.079-.145.118-.218h59.801v60.137l-18.921-18.921a6.505 6.505 0 00-9.199 0z" fill="#428DFF"/><path d="M378.641 201.096H219.209a6.504 6.504 0 000 13.008h159.432a6.504 6.504 0 000-13.008zm6.504 34.536a6.504 6.504 0 00-6.504-6.504H219.209a6.504 6.504 0 000 13.008h159.432a6.504 6.504 0 006.504-6.504zM219.209 257.16a6.504 6.504 0 000 13.008h106.873a6.504 6.504 0 000-13.008H219.209z" fill="#7FACFA"/><path fill="#A4C2F7" d="M108.578 214.125h75.445v97.125h-75.445z"/></g></g><defs><clipPath id="clip0"><path fill="#fff" transform="translate(50 117)" d="M0 0h412v444H0z"/></clipPath></defs></svg>