<svg width="215" height="215" fill="none" xmlns="http://www.w3.org/2000/svg"><g clip-path="url(#clip0)"><path d="M77.767 147.798a3.316 3.316 0 01-3.315-3.315v-22.827a3.315 3.315 0 016.63 0v22.827a3.316 3.316 0 01-3.314 3.315z" fill="#F4AF9D"/><path d="M206.06 190.654V215H93.216l6.1-24.346c0-10.46 8.479-18.939 18.936-18.939h68.869c10.46 0 18.939 8.479 18.939 18.939z" fill="#3B485B"/><path d="M206.06 190.654V215H105.805v-24.346c0-10.46 8.479-18.939 18.94-18.939h62.376c10.46 0 18.939 8.479 18.939 18.939z" fill="#515F75"/><path d="M118.787 171.717l-1.15 29.125 12.244 3.061-10.992 10.992h67.599l-10.992-10.992 12.244-3.061-1.15-29.125" fill="#3B485B"/><path d="M176.028 171.717l-12.331 43.281h-22.014l-12.332-43.281" fill="#F2F2F2"/><path d="M137.605 182.343l15.084 18.881 14.935-18.811-14.935-2.79-15.084 2.72z" fill="#4B7FFF"/><path d="M137.605 182.343l15.084 18.881v-21.601l-15.084 2.72z" fill="#1C5BF6"/><path d="M136.28 196.033l16.409-16.41 16.41 16.41 6.929-24.316h-46.677l6.929 24.316z" fill="#E6E6E6"/><path d="M166.719 147.401v24.317l-14.03 7.905-4.334-2.441-9.696-5.464v-24.334l9.696.005 18.364.012z" fill="#F9C2AF"/><path d="M141.758 214.998l10.931-13.773 11.008 13.773" fill="#4B7FFF"/><path d="M141.758 214.998l10.931-13.773v13.773" fill="#1C5BF6"/><path d="M148.355 147.389l-9.696-.005v24.334l9.696 5.464V165.93a43.989 43.989 0 0018.365-2.054v-16.475l-18.365-.012zm-39.687-25.592c-7.304 0-13.228-5.301-13.228-11.841 0-6.54 5.924-11.842 13.228-11.842h88.084c7.304 0 13.227 5.302 13.227 11.842 0 6.54-5.923 11.841-13.227 11.841" fill="#EA9E8F"/><path d="M196.753 72.2v44.044c0 24.321-19.72 44.04-44.044 44.04-12.16 0-23.175-4.929-31.142-12.898-7.968-7.969-12.899-18.984-12.899-31.142V72.2h88.085z" fill="#F9C2AF"/><path d="M152.397 160.282c-12.04-.08-22.925-4.993-30.83-12.896-7.97-7.972-12.899-18.98-12.899-31.143V72.2h19.828v44.043c0 12.163 2.708 23.171 7.091 31.143 4.314 7.847 10.247 12.744 16.81 12.896z" fill="#EA9E8F"/><path d="M168.377 115.764a2.921 2.921 0 01-2.921-2.921v-6.12a2.92 2.92 0 115.841 0v6.12a2.921 2.921 0 01-2.92 2.921zm-31.335 0a2.923 2.923 0 01-2.921-2.921v-6.12a2.922 2.922 0 015.843 0v6.12a2.922 2.922 0 01-2.922 2.921z" fill="#293544"/><path d="M196.753 72.2v11.036c-3.02 2.162-6.63 4.058-10.918 5.605-15.958 5.75-31.409 3.814-42.333.768 0 0-.005 0-.005-.003-9.519-2.65-15.601-6.147-15.601-6.147s-4.016 19.33-19.228 19.33V72.2h88.085z" fill="#EA9E8F"/><path d="M185.835 84.168c-15.959 5.751-31.409 3.814-42.335.77 0 0-.005 0-.005-.005-9.514-2.651-15.598-6.148-15.598-6.148s-4.017 19.33-19.229 19.33c0 0-10.121-17.903-9.803-34.465.164-8.59 7.247-15.014 15.296-15.014 1.504 0 3.043.221 4.573.7 4.311-11.577 15.702-18.905 28.034-18.153 1.92.118 3.853.27 5.792.446.37.031.746.066 1.117.1.039.005.077.008.114.011 20.129 1.89 40.518 5.57 52.497-7.683 0 0 19.8 45.61-20.453 60.111z" fill="#515F75"/><path d="M146.768 31.182a201 201 0 015.791.446c-17.759-.75-31.871 38.364-9.064 53.306-9.514-2.653-15.598-6.15-15.598-6.15s-4.017 19.33-19.229 19.33c0 0-10.121-17.901-9.803-34.465.164-8.589 7.247-15.014 15.296-15.014 1.504 0 3.043.223 4.573.7 4.311-11.577 15.702-18.904 28.034-18.153z" fill="#3B485B"/><path d="M153.8 31.743a1.621 1.621 0 00-.009-.003l.009.003z" fill="#F4AF9D"/><path d="M152.709 139.167c-4.66 0-9.322-1.774-12.87-5.323a2.922 2.922 0 014.132-4.131c4.817 4.82 12.66 4.82 17.477 0a2.922 2.922 0 014.132 4.131 18.143 18.143 0 01-12.871 5.323z" fill="#E06E86"/><path d="M99.315 144.484v20.721H74.452v-20.721a4.142 4.142 0 014.142-4.142h16.579a4.142 4.142 0 014.142 4.142z" fill="#F4AF9D"/><path d="M99.315 144.484v20.721H84.473v-20.721a4.139 4.139 0 014.142-4.142h6.558a4.142 4.142 0 014.142 4.142z" fill="#F9C2AF"/><path d="M74.452 165.203h24.863v49.677H74.452v-49.677z" fill="#515F75"/><path d="M74.452 165.203h9.946v49.677h-9.946v-49.677z" fill="#3B485B"/><path d="M74.67 70.386v20.3c0 6.078-4.59 11.081-10.5 11.731-.429.049-.867.075-1.31.075h-8.583c-6.524 0-11.81-5.287-11.81-11.805v-20.3H74.67z" fill="#1C5BF6"/><path d="M74.67 70.386v20.3c0 6.078-4.59 11.081-10.5 11.731-5.91-.645-10.507-5.653-10.507-11.73v-20.3h21.008z" fill="#4B7FFF"/><path d="M89.37 54.787c0 11.134-5.9 20.894-14.744 26.317H42.42c-8.847-5.423-14.748-15.183-14.748-26.317 0-17.038 13.812-30.851 30.852-30.851 2.824 0 5.555.38 8.154 1.092 13.08 3.571 22.692 15.544 22.692 29.759z" fill="#EAAD18"/><path d="M89.5 55c0 11.12-4.673 20.584-15 26H53.222C42.889 75.584 36 65.838 36 54.718 36 40.52 45 26.5 60 24c17.5.5 29.5 15.5 29.5 31zm-73.16 3.102H7.093a3.314 3.314 0 110-6.629h9.245a3.313 3.313 0 110 6.629zm78.8-21.112a3.315 3.315 0 01-1.662-6.186l8.007-4.623a3.315 3.315 0 113.315 5.741l-8.006 4.623a3.294 3.294 0 01-1.654.444zM13.993 83.839a3.315 3.315 0 01-1.66-6.186l8.007-4.622a3.314 3.314 0 013.315 5.741l-8.006 4.622a3.3 3.3 0 01-1.655.445zm65.684-62.306a3.314 3.314 0 01-2.867-4.972l4.622-8.007a3.315 3.315 0 115.741 3.316l-4.622 8.006a3.312 3.312 0 01-2.874 1.657zm-21.111-5.658a3.314 3.314 0 01-3.314-3.315V3.315a3.314 3.314 0 116.629 0v9.245a3.313 3.313 0 01-3.315 3.315zm-21.109 5.658a3.312 3.312 0 01-2.874-1.657l-4.622-8.006a3.315 3.315 0 115.741-3.315l4.622 8.006a3.314 3.314 0 01-2.867 4.972zM21.993 36.989a3.295 3.295 0 01-1.653-.445l-8.006-4.622a3.315 3.315 0 113.315-5.741l8.006 4.622a3.314 3.314 0 01-1.662 6.186zm88.046 21.113h-9.245a3.314 3.314 0 110-6.629h9.245a3.314 3.314 0 110 6.629zm-6.899 25.737a3.3 3.3 0 01-1.655-.445l-8.006-4.622a3.314 3.314 0 013.315-5.741l8.006 4.622a3.316 3.316 0 01-1.66 6.186z" fill="#FFC627"/><path d="M62 43c0-2.208-1.565-4-3.5-4S55 40.792 55 43v14c0 2.208 1.565 4 3.5 4s3.5-1.792 3.5-4V43z" fill="#4B7FFF"/><path d="M55 43c0-2.208 1.565-4 3.5-4v22c-1.935 0-3.5-1.792-3.5-4V43z" fill="#1C5BF6"/><path d="M58.5 64a3.501 3.501 0 00-3.5 3.5c0 1.932 1.568 3.5 3.5 3.5s3.5-1.568 3.5-3.5-1.568-3.5-3.5-3.5z" fill="#4B7FFF"/><path d="M58.5 64a3.501 3.501 0 00-3.5 3.5c0 1.932 1.568 3.5 3.5 3.5v-7z" fill="#1C5BF6"/></g><defs><clipPath id="clip0"><path fill="#fff" d="M0 0h215v215H0z"/></clipPath></defs></svg>