<svg width="840" height="430" fill="none" xmlns="http://www.w3.org/2000/svg"><path opacity=".5" fill="url(#paint0_linear)" d="M0 0h843v430H0z"/><g clip-path="url(#clip0)"><g opacity=".2"><path d="M470.521 244.385c12.464-4.321 25.797-.416 33.962 9.948l51.217 65.006c6.542 8.302 16.355 13.064 26.924 13.064h4.866c-17.663 0-32.067-14.219-32.368-31.811-.31-18.112 14.827-32.935 32.943-32.935h80.725c26.919-22.902 66.273-24.794 95.358-4.019l13.391 9.565v123.946H570.118a79.9 79.9 0 01-66.182-35.071l-48.672-71.727A30.401 30.401 0 01450 273.217c0-13.194 8.055-24.511 20.521-28.832z" fill="#FFD5B2"/><path d="M470.521 244.385c12.464-4.321 25.797-.416 33.962 9.948l51.217 65.006c6.542 8.302 16.355 13.064 26.924 13.064h4.866c-17.663 0-32.067-14.219-32.368-31.811-.31-18.112 14.827-32.935 32.943-32.935H645v129.492h-74.882a79.9 79.9 0 01-66.182-35.071l-48.672-71.727A30.401 30.401 0 01450 273.217c0-13.194 8.055-24.511 20.521-28.832z" fill="#FAC394"/><path d="M684.609 343.828c0 6.31-5.115 11.426-11.425 11.426H587.49c-30.451 0-55.224-24.773-55.224-55.225 0-3.205.29-6.341.816-9.398l22.619 28.708c6.541 8.302 16.355 13.063 26.924 13.063h90.559c6.31 0 11.425 5.116 11.425 11.426z" fill="#FAC394"/><path d="M555.701 319.339c6.541 8.302 16.355 13.063 26.924 13.063H645v22.852h-57.51c-30.451 0-55.224-24.773-55.224-55.225 0-3.205.29-6.341.816-9.398l22.619 28.708z" fill="#F0B47F"/><path d="M782.871 420h45.703c6.31 0 11.426-5.116 11.426-11.426V256.23c0-6.31-5.116-11.425-11.426-11.425h-45.703c-6.31 0-11.426 5.115-11.426 11.425v152.344c0 6.31 5.116 11.426 11.426 11.426z" fill="#6BA7FF"/><path d="M782.871 420h45.703c6.31 0 11.426-5.116 11.426-11.426v-76.172h-68.555v76.172c0 6.31 5.116 11.426 11.426 11.426z" fill="#347ADF"/></g><g opacity=".15"><path d="M499.636 134c0 1.907.058 3.871.174 5.778a102.364 102.364 0 0011.035 41.08 87.014 87.014 0 005.778 10.053 102.388 102.388 0 0030.102 30.102 86.882 86.882 0 0010.054 5.778 102.344 102.344 0 0041.08 11.036 96.887 96.887 0 0011.555 0 102.344 102.344 0 0041.08-11.036 86.882 86.882 0 0010.054-5.778 102.4 102.4 0 0030.102-30.102 87.16 87.16 0 005.778-10.053 102.364 102.364 0 0011.035-41.08 96.085 96.085 0 000-11.556 102.36 102.36 0 00-11.035-41.08 87.156 87.156 0 00-5.778-10.053 102.402 102.402 0 00-30.102-30.102 86.968 86.968 0 00-10.054-5.778 102.352 102.352 0 00-41.08-11.036 96.477 96.477 0 00-11.555 0 102.352 102.352 0 00-41.08 11.036 86.968 86.968 0 00-10.054 5.778 102.39 102.39 0 00-30.102 30.102 87.01 87.01 0 00-5.778 10.053 102.36 102.36 0 00-11.035 41.08 96.087 96.087 0 00-.174 5.778z" fill="#FDBE03"/><path d="M603.636 214.889c-44.673 0-80.889-36.216-80.889-80.889 0-44.674 36.216-80.89 80.889-80.89 44.674 0 80.889 36.216 80.889 80.89 0 44.673-36.215 80.889-80.889 80.889z" fill="#FCCD40"/><path d="M517.201 128.222a85.118 85.118 0 018.667-32.413 82.412 82.412 0 015.777-10.054 86.1 86.1 0 0133.8-29.524 85.123 85.123 0 0132.414-8.667c1.906-.173 3.813-.231 5.778-.231 1.964 0 3.871.058 5.777.231a85.123 85.123 0 0132.414 8.667 86.087 86.087 0 0133.8 29.524 82.412 82.412 0 015.777 10.054 85.118 85.118 0 018.667 32.413c.173 1.907.231 3.813.231 5.778 0 1.964-.058 3.871-.231 5.777a85.124 85.124 0 01-8.667 32.414 82.437 82.437 0 01-5.777 10.053 86.086 86.086 0 01-33.8 29.525 85.122 85.122 0 01-32.414 8.666c-1.906.174-3.813.231-5.777.231-1.965 0-3.872-.057-5.778-.231a85.122 85.122 0 01-32.414-8.666 86.1 86.1 0 01-33.8-29.525 82.437 82.437 0 01-5.777-10.053 85.124 85.124 0 01-8.667-32.414c-.173-1.906-.231-3.813-.231-5.777 0-1.965.058-3.871.231-5.778zm21.436 43.333A75.312 75.312 0 00566.081 199a73.906 73.906 0 0032.471 9.88c.347 0 .751.057 1.098.057h.115c.345.05.693.069 1.04.058h.058c.403.048.808.068 1.214.058.518.048 1.039.067 1.56.058h.346c.814-.042 1.623-.076 2.433-.115h.058c.347.01.695-.01 1.04-.058h.115a73.167 73.167 0 0033.569-9.937 75.312 75.312 0 0027.444-27.445 74.799 74.799 0 000-75.111A75.306 75.306 0 00641.192 69a73.659 73.659 0 00-33.569-9.938h-.115a5.948 5.948 0 00-1.04-.058h-.058a8.555 8.555 0 00-1.213-.058 14.114 14.114 0 00-1.56-.057h-.347c-.405-.01-.811.01-1.213.057-.406-.01-.811.01-1.214.058h-.058c-.347-.01-.695.01-1.04.058h-.115c-.347 0-.751.058-1.098.058A73.377 73.377 0 00566.081 69a75.308 75.308 0 00-27.444 27.444 74.799 74.799 0 000 75.111zm28.657-103.538c.314-.25.57-.566.751-.924.058-.058.116-.173.174-.231a5.781 5.781 0 00.578-4.16 1.69 1.69 0 00-.116-.52.442.442 0 00-.116-.231.702.702 0 00-.231-.52c.058-.058 0-.116-.057-.173.057-.058.173-.058.231-.116l.057-.058c1.156-.52 2.427-1.098 3.64-1.618 1.387-.577 2.774-1.097 4.16-1.617.809-.29 1.618-.578 2.427-.81.925-.288 1.849-.635 2.831-.866a78.28 78.28 0 001.849-.52 75.767 75.767 0 013.871-.924c.578-.116 1.156-.174 1.676-.29l1.04-.173a32.233 32.233 0 013.293-.462 4.44 4.44 0 01.867-.115c.115 0 .289-.058.404-.058 1.098-.116 2.138-.231 3.236-.29a5.778 5.778 0 005.778 5.548h-.347c-.405-.01-.811.01-1.213.057-.406-.01-.811.01-1.214.058h-.058c-.347-.01-.695.01-1.04.058h-.115c-.347 0-.751.058-1.098.058A73.377 73.377 0 00566.081 69v-.058a4.82 4.82 0 001.213-.924z" fill="#E57E25"/><path d="M597.859 30.173v23.17a5.777 5.777 0 1011.555 0v-23.17a96.502 96.502 0 00-11.555 0zm43.333 38.769a5.72 5.72 0 007.8-1.907c.058-.058.058-.115.116-.173l2.773-4.853 8.667-15.023a87.038 87.038 0 00-10.053-5.777l-8.667 15.022-2.773 4.853a.21.21 0 00-.058.173 5.725 5.725 0 002.195 7.685zm27.503 27.503a5.726 5.726 0 004.969 2.89 5.585 5.585 0 002.715-.694.213.213 0 00.173-.058l4.854-2.773 15.022-8.667a86.874 86.874 0 00-5.778-10.053l-15.022 8.666-4.853 2.774c-.058.058-.116.058-.174.115a5.818 5.818 0 00-1.906 7.8zm10.053 37.556a5.777 5.777 0 005.546 5.778h23.169a96.085 96.085 0 000-11.556h-23.169a5.777 5.777 0 00-5.546 5.778zm-8.147 45.355c.058.058.116.058.174.116l4.853 2.773 15.022 8.667a86.882 86.882 0 005.778-10.054l-15.022-8.666-4.854-2.774a.211.211 0 00-.173-.057 5.724 5.724 0 00-7.684 2.195 5.818 5.818 0 001.906 7.8zm-31.604 27.386a.21.21 0 00.058.173l2.773 4.853 8.667 15.023a87.245 87.245 0 0010.053-5.778l-8.667-15.022-2.773-4.854c-.058-.058-.058-.115-.116-.173a5.818 5.818 0 00-7.8-1.907 5.726 5.726 0 00-2.195 7.685zm-41.138 7.916v23.169a96.887 96.887 0 0011.555 0v-23.169a5.778 5.778 0 00-11.555 0zm-51.133 6.355a87.16 87.16 0 0010.053 5.778l8.667-15.023 2.773-4.853a.21.21 0 00.058-.173 5.726 5.726 0 00-2.195-7.685 5.818 5.818 0 00-7.8 1.907c-.058.058-.058.115-.116.173l-2.773 4.854-8.667 15.022zm-35.88-40.155a86.882 86.882 0 005.778 10.054l15.022-8.667 4.853-2.773c.058-.058.116-.058.174-.116a5.818 5.818 0 001.906-7.8 5.724 5.724 0 00-7.684-2.195.215.215 0 00-.174.057l-4.853 2.774-15.022 8.666zm-11.209-46.857c0 1.907.058 3.871.174 5.778h23.169a5.777 5.777 0 005.777-5.778 5.777 5.777 0 00-5.777-5.778h-23.169a96.087 96.087 0 00-.174 5.778zm11.209-46.858l15.022 8.667 4.853 2.773c.047.044.11.066.174.058a5.585 5.585 0 002.715.693 5.726 5.726 0 004.969-2.889 5.818 5.818 0 00-1.906-7.8c-.058-.057-.116-.057-.174-.115l-4.853-2.773-15.022-8.667a86.874 86.874 0 00-5.778 10.053zm35.88-40.157l8.667 15.023 2.773 4.853c.058.058.058.115.116.173a5.72 5.72 0 007.8 1.907c.451-.242.86-.554 1.213-.925.34-.359.649-.745.925-1.155a5.78 5.78 0 00.577-4.16 1.66 1.66 0 00-.115-.52.443.443 0 00-.116-.231.702.702 0 00-.231-.52c.058-.058 0-.116-.058-.174a.213.213 0 00-.057-.173l-2.774-4.853-8.666-15.023a86.968 86.968 0 00-10.054 5.778z" fill="#E57E25"/><g clip-path="url(#clip1)"><path d="M570.738 138.752h32.551c-3.276-2.522-6.67-4.844-9.592-7.084a73.196 73.196 0 01-2.127-1.697h-20.831a5.356 5.356 0 110-10.712h10.929c-1.49-2.282-2.761-4.729-3.697-7.431-2.409-6.964-1.207-14.984 2.822-21.078 10.16-15.373 31.034-14.236 45.57-6.6 6.116 3.214.702 12.46-5.407 9.25-7.215-3.79-15.225-5.501-23.116-2.907-5.397 1.774-9.88 6.674-10.348 12.435-.528 6.529 3.427 12.005 7.989 16.335h41.058a5.355 5.355 0 110 10.711h-27.297c2.493 1.841 4.942 3.737 7.234 5.84a34.754 34.754 0 012.83 2.941h17.233a5.355 5.355 0 110 10.712h-10.985c3.481 9.667 2.385 20.642-5.448 28.722-10.834 11.178-29.419 8.437-41.997 2.309-6.211-3.026-.777-12.262 5.406-9.251 9.738 4.747 27.585 7.292 32.208-5.744 2.222-6.267 1.056-11.499-1.818-16.034h-43.166a5.356 5.356 0 01-5.356-5.357 5.357 5.357 0 015.355-5.36z" fill="#E57E25"/></g></g></g><defs><clipPath id="clip0"><path fill="#fff" transform="matrix(-1 0 0 1 840 30)" d="M0 0h400v390H0z"/></clipPath><clipPath id="clip1"><path fill="#fff" transform="matrix(-1 0 0 1 657.207 78.698)" d="M0 0h107.136v107.136H0z"/></clipPath><linearGradient id="paint0_linear" x1="818.412" y1="17.283" x2="-25.376" y2="343.538" gradientUnits="userSpaceOnUse"><stop stop-color="#F2EFD2"/><stop offset="1" stop-color="#DDE2E3"/></linearGradient></defs></svg>