<svg width="1440" height="586" fill="none" xmlns="http://www.w3.org/2000/svg"><path opacity=".8" fill="#1C5BF6" d="M0 0h1440v586H0z"/><path opacity=".7" d="M128 3h1312l7 325s-32-116.345-373-118c-341-1.655-414 246-744 257S-2 301 15 219 128 3 128 3z" fill="url(#paint0_linear)"/><g clip-path="url(#clip0)" stroke="#759BF9" stroke-linecap="round" stroke-linejoin="round"><path d="M473.592 129.765C313.387 144.07 431.591-11.53 510.719-91.119L1458-109l-6.75 345-48.38-56.799c-186.75-257.698-729.021-67.317-929.278-49.436z"/><path d="M389.963 198.973c-183.092 18.451-48.002-182.252 42.43-284.909L1515-109l-7.71 445-55.29-73.262c-213.44-332.394-833.172-86.829-1062.037-63.765z"/><path d="M223.133 286.174C-2.57 309.849 163.96 52.319 275.437-79.406L1610-109l-9.51 571-68.15-94.006c-263.11-426.51-1027.079-111.415-1309.207-81.82z"/></g><defs><linearGradient id="paint0_linear" x1="756" y1="507" x2="752" y2="-3" gradientUnits="userSpaceOnUse"><stop stop-color="#1C5BF6" stop-opacity=".22"/><stop offset="1" stop-color="#1C5BF6" stop-opacity="0"/></linearGradient><clipPath id="clip0"><path fill="#fff" transform="translate(111 3)" d="M0 0h1499v459H0z"/></clipPath></defs></svg>