<svg width="173" height="173" fill="none" xmlns="http://www.w3.org/2000/svg"><path d="M147.771 172.534H10.813C4.85 172.534 0 167.683 0 161.722V75.258c0-5.947 4.844-10.805 10.79-10.813l14.432-.036h122.549c5.961 0 10.812 4.852 10.812 10.813v86.5c0 5.961-4.851 10.812-10.812 10.812z" fill="#1EA0BC"/><path d="M79.291 172.534a3.578 3.578 0 01-2.371-.893c-13.458-11.779-34.78-16.63-50.307-14.814-3.143.346-6.286-.619-8.621-2.703a10.713 10.713 0 01-3.576-7.987V61.425c0-5.334 4.008-9.955 9.314-10.747 17.336-2.574 40.748 2.227 55.561 14.272 14.814-12.045 38.248-16.853 55.555-14.273 5.313.793 9.321 5.414 9.321 10.748v84.712c0 3.05-1.305 5.962-3.576 7.987-2.335 2.084-5.485 3.049-8.621 2.703-15.541-1.816-36.842 3.035-50.307 14.814a3.578 3.578 0 01-2.371.893z" fill="#B9DAE9"/><path d="M86.5 59.796v107.981c-1.586 1.153-3.244 2.523-4.83 3.892-.648.577-1.513.865-2.378.865-.865 0-1.73-.288-2.379-.865-1.586-1.369-3.244-2.739-4.83-3.892V59.797c2.451 1.513 4.83 3.243 7.209 5.19 2.379-1.947 4.757-3.677 7.208-5.19z" fill="#AAC6D3"/><path d="M14.417 64.438l-3.626.007C4.844 64.453 0 69.311 0 75.258v86.464c0 5.961 4.851 10.812 10.813 10.812h68.479c-.865 0-1.73-.288-2.38-.865-.67-.576-1.362-1.16-2.046-1.722-11.57-9.032-27.91-13.48-41.636-13.48-2.292 0-4.505.123-6.61.368-.418.043-.836.072-1.247.072-2.71 0-5.348-.966-7.374-2.775a10.724 10.724 0 01-3.582-7.994v-81.7zm64.875-.029h-.678c.23.18.454.36.678.541v-.54z" fill="#118AA5"/><path d="M77.446 63.523c.62.476 1.233.958 1.846 1.463v-.036c-.224-.18-.447-.36-.678-.54a35.52 35.52 0 00-1.168-.887zM33.288 50c-3.316 0-6.53.224-9.558.67-5.306.8-9.314 5.421-9.314 10.755v84.713c0 3.049 1.305 5.961 3.576 7.986 2.025 1.81 4.664 2.776 7.374 2.776.418 0 .836-.022 1.247-.072a57.267 57.267 0 016.61-.368c13.725 0 30.066 4.447 41.635 13.479a63.61 63.61 0 00-2.782-2.169V60.012C60.564 53.352 46.126 50 33.288 50z" fill="#9FC3D5"/><path d="M72.084 59.796v107.981a60.864 60.864 0 012.782 2.17 96.903 96.903 0 012.047 1.722c.649.577 1.514.865 2.379.865V64.986a56.571 56.571 0 00-1.846-1.463 63.452 63.452 0 00-5.362-3.727z" fill="#8AAAB9"/><path d="M125.854 0C100.019 0 79 21.02 79 46.854c0 25.835 21.019 46.854 46.854 46.854s46.854-21.02 46.854-46.854S151.689 0 125.854 0z" fill="#FCCD40"/><path d="M133.063 72.083a7.206 7.206 0 01-7.209 7.209 7.206 7.206 0 01-7.208-7.209V46.854a7.206 7.206 0 017.208-7.208 7.206 7.206 0 017.209 7.208v25.23zm-7.209-43.25a7.21 7.21 0 01-7.208-7.208 7.21 7.21 0 017.208-7.208 7.212 7.212 0 017.209 7.208 7.212 7.212 0 01-7.209 7.208z" fill="#fff"/><path d="M125.854 0C100.019 0 79 21.02 79 46.854c0 25.835 21.019 46.854 46.854 46.854V79.292a7.206 7.206 0 01-7.208-7.209V46.854a7.206 7.206 0 017.208-7.208V28.833a7.21 7.21 0 01-7.208-7.208 7.21 7.21 0 017.208-7.208V0z" fill="#FFC107"/><path d="M125.854 39.646a7.206 7.206 0 00-7.208 7.208v25.23a7.206 7.206 0 007.208 7.208V39.646zm0-25.229a7.21 7.21 0 00-7.208 7.208 7.21 7.21 0 007.208 7.208V14.417z" fill="#DEDEDE"/><path d="M2.367 46.204L0 40.994l10.42-4.733 2.367 5.21-10.42 4.733zm29.951-13.606l-2.366-5.21 10.42-4.733 2.366 5.21-10.42 4.733zm-18.315-5.812l-4.732-10.42L14.48 14l4.732 10.42-5.21 2.366z" fill="#A4AFC1"/></svg>