<svg width="773" height="684" fill="none" xmlns="http://www.w3.org/2000/svg"><path fill="url(#paint0_linear)" d="M.536 0H773v684H.536z"/><mask id="a" style="mask-type:alpha" maskUnits="userSpaceOnUse" x="0" y="0" width="773" height="684"><path fill="url(#paint1_linear)" d="M.536 0H773v684H.536z"/></mask><g opacity=".1" mask="url(#a)"><path d="M780.17 574.242c-13.735 37.224-34.507 69.591-61.746 96.191-31.006 30.277-71.606 54.335-120.674 71.497a38.038 38.038 0 01-4.979 1.361 37.62 37.62 0 01-6.748.709h-.441c-2.398 0-4.807-.242-7.197-.709-1.688-.34-3.345-.8-4.947-1.349-49.127-17.135-89.778-41.181-120.815-71.458-27.251-26.601-48.019-58.947-61.734-96.171-24.94-67.681-23.521-142.238-22.378-202.152l.019-.92c.23-4.947.378-10.144.46-15.883.417-28.175 22.819-51.485 50.998-53.056 58.752-3.279 104.202-22.441 143.037-60.293l.339-.311c6.448-5.915 14.573-8.815 22.659-8.694 7.797.101 15.563 2.998 21.781 8.694l.332.311c38.842 37.852 84.292 57.014 143.044 60.293 28.179 1.571 50.581 24.881 50.998 53.056.082 5.778.23 10.967.46 15.883l.012.39c1.138 60.027 2.549 134.732-22.48 202.611z" fill="#00DD80"/><path d="M780.169 574.242c-13.735 37.224-34.507 69.591-61.746 96.191-31.006 30.277-71.606 54.335-120.674 71.497a38.08 38.08 0 01-4.979 1.361c-2.23.44-4.499.678-6.749.709V233.004c7.798.101 15.564 2.998 21.782 8.694l.331.311c38.842 37.852 84.293 57.014 143.045 60.293 28.179 1.571 50.581 24.881 50.998 53.056.082 5.778.23 10.967.46 15.883l.012.39c1.138 60.027 2.549 134.732-22.48 202.611z" fill="#00AA63"/><path d="M712.926 488.5c0 70.07-56.893 127.107-126.905 127.356h-.448c-70.218 0-127.356-57.134-127.356-127.356 0-70.218 57.138-127.353 127.356-127.353h.448c70.012.25 126.905 57.287 126.905 127.353z" fill="#fff"/><path d="M712.926 488.5c0 70.07-56.893 127.107-126.905 127.356V361.147c70.012.25 126.905 57.287 126.905 127.353z" fill="#E1EBF0"/><path d="M643.378 470.161l-57.357 57.364-12.393 12.394a14.95 14.95 0 01-10.604 4.39 14.96 14.96 0 01-10.609-4.39l-26.647-26.659c-5.855-5.856-5.855-15.341 0-21.201 5.848-5.855 15.345-5.855 21.201 0l16.055 16.055 59.153-59.154c5.856-5.859 15.353-5.859 21.201 0 5.856 5.856 5.856 15.353 0 21.201z" fill="#00DD80"/><path d="M643.378 470.161l-57.357 57.364v-42.413l36.156-36.152c5.856-5.859 15.353-5.859 21.201 0 5.856 5.856 5.856 15.353 0 21.201z" fill="#00AA63"/></g><defs><linearGradient id="paint0_linear" x1="807.5" y1="-27.5" x2="-235.886" y2="178.157" gradientUnits="userSpaceOnUse"><stop stop-color="#F2EFD2" stop-opacity=".5"/><stop offset="1" stop-color="#DDE2E3"/></linearGradient><linearGradient id="paint1_linear" x1="807.5" y1="-27.5" x2="-235.886" y2="178.157" gradientUnits="userSpaceOnUse"><stop stop-color="#F2EFD2" stop-opacity=".5"/><stop offset="1" stop-color="#DDE2E3"/></linearGradient></defs></svg>