<svg width="46" height="801" fill="none" xmlns="http://www.w3.org/2000/svg"><path d="M45.773 795L40 789.226 34.227 795 40 800.774 45.773 795zM1 404.387l-.753-.658a1 1 0 000 1.315l.753-.657zM45.773 6L40 .226 34.227 6 40 11.774 45.773 6zM7.94 396.434l.754.657-.754-.657zM40 794h-7.13v2H40v-2zm-26.13-19V425.489h-2V775h2zM8.693 411.682l-6.94-7.953-1.506 1.315 6.939 7.953 1.507-1.315zm-6.94-6.638l6.94-7.953-1.507-1.315-6.94 7.953 1.507 1.315zm12.117-21.76V26h-2v357.284h2zM32.87 7H40V5h-7.13v2zm-19 19c0-10.493 8.506-19 19-19V5c-11.598 0-21 9.402-21 21h2zM8.693 397.091a21 21 0 005.177-13.807h-2a19 19 0 01-4.684 12.492l1.507 1.315zm5.177 28.398c0-5.077-1.84-9.981-5.177-13.807l-1.507 1.315a19.002 19.002 0 014.684 12.492h2zM32.87 794c-10.494 0-19-8.507-19-19h-2c0 11.598 9.402 21 21 21v-2z" fill="#1C5BF6"/></svg>