<svg width="105" height="105" fill="none" xmlns="http://www.w3.org/2000/svg"><g clip-path="url(#clip0)"><path d="M79.33 63.308c.217 1.213.326 2.443.325 3.675a25.476 25.476 0 01-10.464 20.276 5.532 5.532 0 00-2.082 5.412l1.612 8.002A3.62 3.62 0 0165.172 105h-7.53a3.59 3.59 0 01-3.26-2.028c-1.23-2.661-4.416-7.024-11.947-7.024-7.532 0-10.718 4.363-11.949 7.024A3.59 3.59 0 0127.228 105h-7.531a3.62 3.62 0 01-3.549-4.327l1.865-9.287a5.478 5.478 0 00-1.81-5.195 26.07 26.07 0 01-5.594-6.391 3.673 3.673 0 00-3.187-1.955H3.621A3.632 3.632 0 010 74.225V63.361a3.632 3.632 0 013.62-3.62h2.064a3.595 3.595 0 003.35-2.282 28.334 28.334 0 019.287-12.075 14.467 14.467 0 00-3.838-9.178c-4.997-4.997 8.382-6.934 13.378 4.073a41.33 41.33 0 0113.777-2.263 46.15 46.15 0 0112.908 1.847l24.783 23.444z" fill="#FF5364"/><path d="M79.33 63.308c.217 1.213.326 2.443.325 3.675a25.476 25.476 0 01-10.464 20.276 5.532 5.532 0 00-2.082 5.412l1.612 8.002A3.62 3.62 0 0165.172 105h-7.53a3.59 3.59 0 01-3.26-2.028c-1.23-2.661-4.416-7.024-11.947-7.024-7.532 0-10.718 4.363-11.949 7.024A3.59 3.59 0 0127.228 105h-7.531a3.62 3.62 0 01-3.549-4.327l1.865-9.287a5.478 5.478 0 00-1.81-5.195 26.07 26.07 0 01-5.594-6.391 3.673 3.673 0 00-3.187-1.955H3.621A3.632 3.632 0 010 74.225V63.361a3.632 3.632 0 013.62-3.62h2.064a3.595 3.595 0 003.35-2.282 28.334 28.334 0 019.287-12.075 14.467 14.467 0 00-3.838-9.178c-4.997-4.997 8.382-6.934 13.378 4.073a41.33 41.33 0 0113.777-2.263 46.15 46.15 0 0112.908 1.847l24.783 23.444z" fill="#FDBE03"/><path d="M65.172 105h-7.53a3.59 3.59 0 01-3.26-2.028c-1.23-2.661-4.416-7.024-11.947-7.024-7.531 0-10.718 4.363-11.949 7.024A3.59 3.59 0 0127.228 105h-7.531a3.62 3.62 0 01-3.549-4.327l.797-3.946a3.96 3.96 0 002.752 1.032h7.53a3.73 3.73 0 003.26-1.63c1.23-2.118 4.417-5.63 11.948-5.63 7.53 0 10.717 3.512 11.948 5.63a3.73 3.73 0 003.258 1.63h7.532a3.96 3.96 0 002.751-1.032l.797 3.946A3.62 3.62 0 0165.172 105z" fill="#FFA722"/><path d="M61.552 52.558a1.81 1.81 0 01-.949-.27 36.526 36.526 0 00-18.965-5.22 1.81 1.81 0 110-3.62 40.18 40.18 0 0120.859 5.759 1.81 1.81 0 01-.945 3.35z" fill="#A46200"/><path d="M86.897 68.793c-1 0-1.81-.81-1.81-1.81v-3.621a1.789 1.789 0 00-1.058-1.63 1.81 1.81 0 111.427-3.327 5.38 5.38 0 013.25 4.957v3.62c0 1-.81 1.811-1.81 1.811z" fill="#FFA722"/><path d="M80.18 63.194L97.996 50.52A16.582 16.582 0 00105 37.011V11.425a.906.906 0 00-.543-.83L80.017.035a.905.905 0 00-.724 0l-24.44 10.558a.905.905 0 00-.543.831V37.01a16.581 16.581 0 007.005 13.498L79.13 63.18a.905.905 0 001.05.013z" fill="#3B97D3"/><path d="M65.513 44.612a9.368 9.368 0 01-3.961-7.601V15.59l18.103-7.82 18.104 7.82v21.42a9.374 9.374 0 01-3.961 7.604L79.655 54.672l-14.142-10.06z" fill="#955BA5"/><path d="M65.513 44.612a9.368 9.368 0 01-3.961-7.601V15.59l18.103-7.82 18.104 7.82v21.42a9.374 9.374 0 01-3.961 7.604L79.655 54.672l-14.142-10.06z" fill="#B0D3F0"/><path d="M76.034 41.52a1.81 1.81 0 01-1.086-.362l-7.241-5.43a1.81 1.81 0 012.172-2.897l5.839 4.377 13.385-16.733a1.81 1.81 0 012.828 2.261L77.448 40.84a1.81 1.81 0 01-1.413.68z" fill="#3D324C"/></g><defs><clipPath id="clip0"><path fill="#fff" d="M0 0h105v105H0z"/></clipPath></defs></svg>