<svg width="105" height="105" fill="none" xmlns="http://www.w3.org/2000/svg"><path d="M79.655 61.226V23.535L56.121 0H3.62A3.632 3.632 0 000 3.62v97.759A3.632 3.632 0 003.62 105h72.415a3.632 3.632 0 003.62-3.621V61.226z" fill="#B0D3F0"/><path d="M79.655 23.535L56.121 0v21.724c0 1 .81 1.81 1.81 1.81h21.724z" fill="#90BAE1"/><path d="M49.806 28.965H29.85a3.62 3.62 0 00-3.469 2.58L21.724 47.07h36.207l-4.656-15.524a3.62 3.62 0 00-3.469-2.58z" fill="#2FA8CC"/><path d="M57.931 48.88H21.724a1.81 1.81 0 01-1.734-2.33l4.656-15.523a5.398 5.398 0 015.203-3.872h19.957a5.398 5.398 0 015.203 3.872l4.657 15.522a1.81 1.81 0 01-1.735 2.33zm-33.774-3.622h31.341l-3.957-13.191a1.8 1.8 0 00-1.735-1.291H29.85a1.8 1.8 0 00-1.734 1.29l-3.958 13.192z" fill="#2980BA"/><path d="M39.827 34.397c-1 0-1.81-.811-1.81-1.81v-3.622a1.81 1.81 0 013.62 0v3.621c0 1-.81 1.81-1.81 1.81z" fill="#2980BA"/><path d="M28.965 10.862H9.052a1.81 1.81 0 110-3.62h19.913a1.81 1.81 0 110 3.62zm18.104 0h-9.052a1.81 1.81 0 010-3.62h9.052a1.81 1.81 0 010 3.62zm0 10.862H9.052a1.81 1.81 0 110-3.62h38.017a1.81 1.81 0 010 3.62zm-28.966 7.241H9.052a1.81 1.81 0 110-3.62h9.051a1.81 1.81 0 010 3.62zm25.345 52.501H9.052a1.81 1.81 0 110-3.621h34.396a1.81 1.81 0 010 3.62zm18.104 0H50.69a1.81 1.81 0 010-3.621h10.862a1.81 1.81 0 010 3.62zm0 7.241H36.207a1.81 1.81 0 010-3.62h25.345a1.81 1.81 0 110 3.62zm-32.587 0H9.052a1.81 1.81 0 110-3.62h19.913a1.81 1.81 0 110 3.62zM52.5 95.948H9.052a1.81 1.81 0 110-3.62H52.5a1.81 1.81 0 110 3.62zm10.862 0h-3.62a1.81 1.81 0 110-3.62h3.62a1.81 1.81 0 010 3.62z" fill="#285680"/><path d="M72.754 94.933a9.37 9.37 0 01-3.96-7.602v-21.42l18.103-7.82L105 65.91v21.42a9.37 9.37 0 01-3.961 7.603L86.897 105 72.754 94.933z" fill="#FDBE03"/><path d="M83.276 91.839a1.81 1.81 0 01-1.087-.362l-7.24-5.431a1.81 1.81 0 012.172-2.897l5.838 4.377 13.386-16.733a1.81 1.81 0 012.827 2.262L84.69 91.158a1.81 1.81 0 01-1.414.68zM65.173 54.31v7.242a3.632 3.632 0 01-3.621 3.62H18.104a3.632 3.632 0 01-3.621-3.62V54.31c0-4 3.242-7.241 7.241-7.241h36.207c4 0 7.242 3.242 7.242 7.241z" fill="#3B97D3"/><path d="M28.966 54.31v1.81c0 1-.81 1.811-1.81 1.811H14.482v-3.62h10.862a1.81 1.81 0 013.62 0zm36.206 0v3.621H52.5c-1 0-1.81-.81-1.81-1.81v-1.81a1.81 1.81 0 013.62 0h10.862z" fill="#F3D55B"/><path d="M34.397 57.931h10.862c1 0 1.81.81 1.81 1.81v5.431H32.586v-5.43c0-1 .81-1.81 1.81-1.81z" fill="#ECF0F1"/><path d="M36.207 59.742h7.241c1 0 1.81.81 1.81 1.81v3.62h-10.86v-3.62c0-1 .81-1.81 1.81-1.81z" fill="#fff"/><path d="M19.914 65.172h10.862v3.621c0 2-1.621 3.62-3.62 3.62h-3.621c-2 0-3.621-1.62-3.621-3.62v-3.62zm28.966 0h10.86v3.621c0 2-1.62 3.62-3.62 3.62H52.5c-2 0-3.622-1.62-3.622-3.62v-3.62z" fill="#35495E"/></svg>