<svg width="105" height="105" fill="none" xmlns="http://www.w3.org/2000/svg"><g clip-path="url(#clip0)"><path d="M82.984 99.92H5.08A5.08 5.08 0 010 94.838V35.565a5.08 5.08 0 015.08-5.081h77.904a5.08 5.08 0 015.08 5.08V94.84a5.08 5.08 0 01-5.08 5.08z" fill="#3B97D3"/><path d="M82.984 93.145H5.08A5.08 5.08 0 010 88.065V28.79a5.08 5.08 0 015.08-5.08h77.904a5.08 5.08 0 015.08 5.08v59.274a5.08 5.08 0 01-5.08 5.081z" fill="#B0D3F0"/><path d="M86.37 45.726c.573 0 1.134-.043 1.694-.086V28.79a5.08 5.08 0 00-5.08-5.08h-18.63c0 12.159 9.858 22.016 22.017 22.016z" fill="#BDC2C6"/><path d="M82.984 23.71H5.08A5.08 5.08 0 000 28.79v6.775h88.064V28.79a5.08 5.08 0 00-5.08-5.08z" fill="#3B97D3"/><path d="M82.984 23.71h-18.63c0 2.184.33 4.287.929 6.274.33 1.094-.465 2.194-1.607 2.194H0v3.387h88.064V28.79a5.08 5.08 0 00-5.08-5.081z" fill="#3475B0"/><path d="M11.855 28.79a3.387 3.387 0 01-3.387-3.386v-5.081a3.387 3.387 0 116.774 0v5.08a3.387 3.387 0 01-3.387 3.388z" fill="#285680"/><path d="M11.855 16.936a3.387 3.387 0 013.387 3.387v3.387h-1.694a1.693 1.693 0 01-1.693-1.694v-5.08z" fill="#BDC3C7"/><path d="M86.371 42.258C96.66 42.258 105 33.918 105 23.63 105 13.34 96.66 5 86.371 5c-10.288 0-18.63 8.34-18.63 18.63 0 10.288 8.341 18.628 18.63 18.628z" fill="#FCCD40"/><path d="M93.02 23.771h-5.956c.6-.494 1.22-.95 1.755-1.388.133-.109.262-.22.39-.333h3.811c.541 0 .98-.47.98-1.05 0-.58-.439-1.05-.98-1.05h-2c.273-.447.505-.927.677-1.456.44-1.365.22-2.937-.517-4.132-1.859-3.013-5.678-2.79-8.338-1.293-1.12.63-.129 2.442.99 1.813 1.32-.743 2.785-1.079 4.229-.57.988.348 1.808 1.308 1.893 2.437.097 1.28-.626 2.354-1.461 3.202H80.98c-.541 0-.98.47-.98 1.05 0 .58.439 1.05.98 1.05h4.995c-.456.36-.904.732-1.324 1.145a6.61 6.61 0 00-.518.576H80.98c-.541 0-.98.47-.98 1.05 0 .58.439 1.05.98 1.05h2.01c-.637 1.895-.436 4.046.997 5.63 1.982 2.19 5.383 1.653 7.684.452 1.137-.593.143-2.403-.989-1.813-1.782.93-5.047 1.429-5.893-1.126-.407-1.229-.193-2.254.332-3.143h7.899c.541 0 .98-.47.98-1.05 0-.58-.439-1.05-.98-1.05z" fill="#fff"/><path d="M88.911 39.799c-10.288 0-18.629-8.341-18.629-18.63 0-4.497 1.594-8.622 4.247-11.841a18.589 18.589 0 00-6.787 14.382c0 10.288 8.34 18.629 18.629 18.629 5.791 0 10.965-2.643 14.382-6.788A18.554 18.554 0 0188.911 39.8z" fill="#FFA722"/><path d="M23.71 57.58H13.547a1.694 1.694 0 01-1.693-1.693v-5.08c0-.936.758-1.694 1.693-1.694H23.71c.936 0 1.694.758 1.694 1.694v5.08c0 .935-.758 1.694-1.694 1.694zm16.935 0H30.484a1.693 1.693 0 01-1.694-1.693v-5.08c0-.936.759-1.694 1.694-1.694h10.161c.935 0 1.694.758 1.694 1.694v5.08c0 .935-.759 1.694-1.694 1.694zm16.935 0H47.42a1.693 1.693 0 01-1.694-1.693v-5.08c0-.936.758-1.694 1.694-1.694h10.16c.936 0 1.694.758 1.694 1.694v5.08c0 .935-.758 1.694-1.693 1.694zm16.936 0h-10.16a1.694 1.694 0 01-1.694-1.693v-5.08c0-.936.758-1.694 1.693-1.694h10.161c.936 0 1.694.758 1.694 1.694v5.08c0 .935-.758 1.694-1.694 1.694zM23.71 69.436H13.547a1.694 1.694 0 01-1.693-1.694v-5.08c0-.936.758-1.694 1.693-1.694H23.71c.936 0 1.694.758 1.694 1.693v5.081c0 .935-.758 1.694-1.694 1.694z" fill="#fff"/><path d="M40.645 69.436H30.484a1.694 1.694 0 01-1.694-1.694v-5.08c0-.936.759-1.694 1.694-1.694h10.161c.935 0 1.694.758 1.694 1.693v5.081c0 .935-.759 1.694-1.694 1.694z" fill="#FDBE03"/><path d="M57.58 69.436H47.42a1.693 1.693 0 01-1.694-1.694v-5.08c0-.936.758-1.694 1.694-1.694h10.16c.936 0 1.694.758 1.694 1.693v5.081c0 .935-.758 1.694-1.693 1.694zm16.936 0h-10.16a1.694 1.694 0 01-1.694-1.694v-5.08c0-.936.758-1.694 1.693-1.694h10.161c.936 0 1.694.758 1.694 1.693v5.081c0 .935-.758 1.694-1.694 1.694zM23.71 81.29H13.547a1.693 1.693 0 01-1.693-1.693v-5.08c0-.936.758-1.694 1.693-1.694H23.71c.936 0 1.694.758 1.694 1.693v5.08c0 .936-.758 1.694-1.694 1.694zm16.935 0H30.484a1.693 1.693 0 01-1.694-1.693v-5.08c0-.936.759-1.694 1.694-1.694h10.161c.935 0 1.694.758 1.694 1.693v5.08c0 .936-.759 1.694-1.694 1.694zm16.935 0H47.42a1.693 1.693 0 01-1.694-1.693v-5.08c0-.936.758-1.694 1.694-1.694h10.16c.936 0 1.694.758 1.694 1.693v5.08c0 .936-.758 1.694-1.693 1.694z" fill="#fff"/><path d="M74.516 81.29h-10.16a1.693 1.693 0 01-1.694-1.693v-5.08c0-.936.758-1.694 1.693-1.694h10.161c.936 0 1.694.758 1.694 1.693v5.08c0 .936-.758 1.694-1.694 1.694z" fill="#FDBE03"/></g><defs><clipPath id="clip0"><path fill="#fff" d="M0 0h105v105H0z"/></clipPath></defs></svg>