<svg width="105" height="105" fill="none" xmlns="http://www.w3.org/2000/svg"><g clip-path="url(#clip0)"><path d="M85.775 71.085l-2.667-21.667-4.998.615.002-.003-9.69-5.453a5.84 5.84 0 00-3.4-.726l-15.3 1.415a5.838 5.838 0 00-4.511 2.88L34.427 66.709a2.565 2.565 0 001.312 3.688l.441.166c.849.321 1.72.507 2.593.58l-1.367 1.19-2.733 2.381-7.776 6.632a3.322 3.322 0 00-.322 4.688l.789.903a4.27 4.27 0 006.022.411l2.972 3.409a4.262 4.262 0 006.022.411l2.968 3.409a4.264 4.264 0 003.745 1.432 4.242 4.242 0 002.28-1.018l1.614 1.394a4.271 4.271 0 006.025.414l2.193-1.913 18.436-14.358.02-.019 7.273-.007-1.159-9.416z" fill="#F29F5C"/><path d="M77.874 74.926l-.02.019L59.42 89.303l-2.193 1.913a4.271 4.271 0 01-6.026-.414l-1.613-1.394a4.241 4.241 0 01-2.28 1.018 4.264 4.264 0 01-3.745-1.432l-2.969-3.409a4.262 4.262 0 01-6.022-.411L31.6 81.766a4.269 4.269 0 01-5.287.251 3.32 3.32 0 00.263 4.016l.789.903a4.27 4.27 0 006.022.411l2.971 3.409a4.263 4.263 0 006.022.411l2.968 3.409a4.264 4.264 0 003.745 1.432 4.242 4.242 0 002.281-1.018l1.613 1.394a4.271 4.271 0 006.026.414l2.193-1.913L79.64 80.527l.02-.018 7.274-.008-.805-6.537-8.256.962z" fill="#D37D42"/><path d="M81.231 84.298l-9.877-8.517-2.747-2.366-1.966-1.693-8.45-7.284.976-8.308A5.733 5.733 0 0055 49.935l-18.42-5.097a4.263 4.263 0 00-4.932 2.165l-2.316 4.522-9.944-.675-2.547 21.682-1.107 9.422 9.68.644.02.018 20.22 17.43 2.204 1.901a4.271 4.271 0 006.023-.447l2.949-3.422a4.24 4.24 0 002.286 1.006 4.264 4.264 0 003.737-1.453l2.95-3.425a4.262 4.262 0 006.02-.445l2.952-3.425a4.27 4.27 0 006.02-.444l.783-.908a3.321 3.321 0 00-.348-4.686z" fill="#F9C295"/><path d="M81.231 84.299l-3.009-2.595a3.526 3.526 0 01-.145 4.422l-.832.964a4.532 4.532 0 01-6.39.472l-3.135 3.636a4.525 4.525 0 01-6.39.472l-3.131 3.636a4.526 4.526 0 01-3.967 1.542 4.502 4.502 0 01-2.427-1.068l-3.13 3.633a4.505 4.505 0 01-2.149 1.385l1.333 1.15a4.27 4.27 0 006.023-.448l2.949-3.422a4.24 4.24 0 002.287 1.006 4.264 4.264 0 003.736-1.453l2.95-3.425a4.261 4.261 0 006.02-.445l2.952-3.424a4.27 4.27 0 006.02-.445l.783-.908a3.322 3.322 0 00-.348-4.685z" fill="#E59F6A"/><path d="M75.776 89.196l-5.413-4.666a1.538 1.538 0 00-2.008 2.33l5.402 4.658 1.019-1.181c.406.35.86.605 1.337.777a1.539 1.539 0 00-.337-1.918zm-8.654 5.786a1.54 1.54 0 00-.32-1.945l-4.862-4.192a1.538 1.538 0 00-2.009 2.33l4.862 4.192.006.005 1.005-1.166c.4.346.848.603 1.318.776z" fill="#E59F6A"/><path d="M25.919 82.576l-1.172 1.547a3.827 3.827 0 006.101 4.62l1.172-1.546a3.827 3.827 0 00-6.102-4.62z" fill="#F29F5C"/><path d="M33.054 85.83l-2.206 2.914a3.827 3.827 0 006.101 4.62l2.207-2.913a3.827 3.827 0 00-6.102-4.62z" fill="#F29F5C"/><path d="M39.956 89.393l-3.007 3.971a3.827 3.827 0 006.1 4.62l3.008-3.97a3.827 3.827 0 00-6.101-4.62z" fill="#F29F5C"/><path d="M46.231 93.783l-3.181 4.201a3.827 3.827 0 006.1 4.621l3.183-4.202a3.827 3.827 0 00-6.102-4.62zM78.112 50.03l-9.69-5.453a5.84 5.84 0 00-3.401-.726l-15.3 1.415a5.838 5.838 0 00-4.51 2.88L34.427 66.709a2.565 2.565 0 001.311 3.688l.442.166a9.589 9.589 0 0010.99-3.127l4.133-5.378s9.931 11.5 20.866-1.93" fill="#F29F5C"/><path d="M104.988 83.399l-5.068-41.17a1.538 1.538 0 00-1.714-1.338L86.355 42.35a5.63 5.63 0 00-4.895 6.269l4.07 33.058a5.632 5.632 0 006.269 4.895l11.851-1.459a1.539 1.539 0 001.338-1.714z" fill="#5C9CEE"/><path d="M104.988 83.399l-.556-4.52c-.252.37-.655.635-1.135.694l-12.423 1.53a5.91 5.91 0 01-5.76-2.794l.415 3.368a5.632 5.632 0 006.27 4.895l11.85-1.459a1.538 1.538 0 001.339-1.714z" fill="#3580D3"/><path d="M18.645 42.35l-11.85-1.46a1.538 1.538 0 00-1.715 1.34L.012 83.399a1.538 1.538 0 001.338 1.714l11.851 1.459a5.633 5.633 0 006.27-4.895l4.069-33.058a5.63 5.63 0 00-4.895-6.27z" fill="#898989"/><path d="M.012 83.399l.556-4.52c.252.37.655.635 1.135.694l12.422 1.53a5.91 5.91 0 005.76-2.794l-.414 3.368a5.632 5.632 0 01-6.27 4.895l-11.85-1.459A1.538 1.538 0 01.01 83.4z" fill="#606160"/><path d="M95.156 79.78a2.973 2.973 0 100-5.947 2.973 2.973 0 000 5.947zm-85.478 0a2.973 2.973 0 100-5.946 2.973 2.973 0 000 5.946z" fill="#EBEEF2"/><mask id="a" style="mask-type:alpha" maskUnits="userSpaceOnUse" x="30" y="0" width="48" height="45"><path fill="#C4C4C4" d="M30 0h48v45H30z"/></mask><g mask="url(#a)"><path d="M74.033 78.57c0 5.737-5.537 10.43-12.305 10.43-3.69 0-7.013-1.408-9.228-3.598-1.969-1.826-3.076-4.224-3.076-6.832V2.607C49.424 1.147 50.777 0 52.5 0s3.076 1.147 3.076 2.607V78.57c0 2.869 2.769 5.215 6.152 5.215 3.384 0 6.153-2.346 6.153-5.215 0-1.46 1.353-2.607 3.076-2.607.185 0 .37 0 .615.052 1.415.26 2.461 1.304 2.461 2.555z" fill="#A1A7B3"/><path d="M74.033 78.57c0 5.737-5.537 10.43-12.305 10.43-3.69 0-7.013-1.408-9.228-3.598V0c1.723 0 3.076 1.147 3.076 2.607V78.57c0 2.869 2.769 5.215 6.152 5.215 3.384 0 6.153-2.346 6.153-5.215 0-1.46 1.353-2.607 3.076-2.607.185 0 .37 0 .615.052 1.415.26 2.461 1.304 2.461 2.555z" fill="#979CA7"/></g><g opacity=".5" filter="url(#filter0_f)" fill="#6C4100" fill-opacity=".92"><path d="M52.5 15C26.96 15 6 32.794 6 54.667 6 55.957 7.219 57 8.725 57s2.724-1.044 2.724-2.333c0-.581 3.082-2.334 8.356-2.334 2.16 0 8.034.76 8.22 2.535l10.059-4.687 27.927-.054 10.986 4.645c.086-1.599 6.127-2.439 8.198-2.439 5.274 0 8.356 1.753 8.356 2.334 0 1.29 1.218 2.333 2.724 2.333C97.781 57 99 55.956 99 54.667 99 32.794 78.04 15 52.5 15z"/><path d="M66.011 50.127l10.986 4.645c.086-1.599 6.127-2.439 8.198-2.439 5.274 0 8.356 1.753 8.356 2.334 0 1.29 1.218 2.333 2.724 2.333C97.781 57 99 55.956 99 54.667 99 32.794 78.04 15 52.5 15v35.153l13.511-.026z"/><path d="M65.96 20.6c-3.978-3.64-8.719-5.507-13.46-5.507-4.686 0-9.372 1.82-13.35 5.414-7.738 7.093-11.171 23.1-11.117 34.346.11 1.214 1.253 2.147 2.67 2.147 1.526 0 2.725-1.027 2.725-2.333l.054-.047c.055-.607 2.943-2.287 8.12-2.287 5.285 0 8.174 1.774 8.174 2.334 0 1.306 1.198 2.333 2.724 2.333 1.526 0 2.725-1.027 2.725-2.333 0-.56 2.888-2.334 8.174-2.334 5.231 0 8.119 1.727 8.174 2.334 0 1.306 1.198 2.333 2.724 2.333 1.472 0 2.615-.98 2.725-2.24.054-12.367-3.815-27.44-11.062-34.16z"/><path d="M77.022 54.76c-.11 1.26-1.254 2.24-2.725 2.24-1.526 0-2.724-1.027-2.724-2.333-.055-.607-2.943-2.334-8.174-2.334-5.286 0-8.174 1.774-8.174 2.334 0 1.306-1.199 2.333-2.725 2.333V15.093c4.741 0 9.482 1.867 13.46 5.507 7.247 6.72 11.116 21.793 11.062 34.16z"/></g><path d="M52.5 5.215C23.664 5.215 0 25.099 0 49.54c0 1.441 1.376 2.607 3.076 2.607 1.7 0 3.076-1.166 3.076-2.607 0-.65 3.48-2.607 9.434-2.607 2.438 0 9.071.849 9.282 2.831l11.355-5.236 31.532-.061 12.403 5.19c.097-1.786 6.917-2.724 9.256-2.724 5.954 0 9.434 1.958 9.434 2.607 0 1.441 1.376 2.607 3.076 2.607 1.7 0 3.076-1.166 3.076-2.607 0-24.442-23.664-44.326-52.5-44.326z" fill="#FDBE03"/><path d="M67.755 44.468l12.403 5.19c.097-1.786 6.917-2.724 9.256-2.724 5.954 0 9.434 1.958 9.434 2.607 0 1.441 1.376 2.607 3.076 2.607 1.7 0 3.076-1.166 3.076-2.607 0-24.442-23.664-44.326-52.5-44.326v39.282l15.255-.03z" fill="#FFA722"/><path d="M67.696 11.473c-4.49-4.068-9.843-6.154-15.196-6.154-5.29 0-10.582 2.034-15.073 6.05-8.736 7.926-12.612 25.813-12.55 38.38.123 1.356 1.414 2.4 3.014 2.4 1.723 0 3.076-1.148 3.076-2.608l.062-.052c.061-.678 3.322-2.555 9.167-2.555 5.967 0 9.228 1.981 9.228 2.607 0 1.46 1.353 2.607 3.076 2.607s3.076-1.147 3.076-2.607c0-.626 3.261-2.607 9.229-2.607 5.906 0 9.167 1.929 9.228 2.607 0 1.46 1.354 2.607 3.077 2.607 1.66 0 2.953-1.095 3.076-2.503.061-13.82-4.307-30.663-12.49-38.172z" fill="#FCCD40"/><path d="M80.186 49.645c-.124 1.408-1.415 2.503-3.077 2.503-1.722 0-3.076-1.147-3.076-2.607-.061-.678-3.322-2.607-9.228-2.607-5.968 0-9.229 1.981-9.229 2.607 0 1.46-1.353 2.607-3.076 2.607V5.318c5.352 0 10.705 2.087 15.196 6.155 8.183 7.509 12.551 24.353 12.49 38.172z" fill="#FDBE03"/></g><defs><clipPath id="clip0"><path fill="#fff" d="M0 0h105v105H0z"/></clipPath><filter id="filter0_f" x="-4" y="5" width="113" height="62" filterUnits="userSpaceOnUse" color-interpolation-filters="sRGB"><feFlood flood-opacity="0" result="BackgroundImageFix"/><feBlend in="SourceGraphic" in2="BackgroundImageFix" result="shape"/><feGaussianBlur stdDeviation="5" result="effect1_foregroundBlur"/></filter></defs></svg>