<svg width="1440" height="190" fill="none" xmlns="http://www.w3.org/2000/svg"><g opacity=".5" stroke="#739BFF" stroke-linecap="round" stroke-linejoin="round"><path d="M1302.75 85.181c-111.39-8.642-10.71-108.335 53.55-157.101l650.09 99.88-48.61 251.487-25.84-47.304c-94.85-210.72-489.97-136.159-629.19-146.962z"/><path d="M1233.91 125.328c-130.96-8.931-10.47-139.156 66.14-203.152l763.38 115.73-62.16 324.475-29.5-60.347c-107.53-269.214-574.16-165.541-737.86-176.706z"/><path d="M1103.42 168.282c-168.071-11.466-13.45-178.56 84.87-260.672L2168 56.14l-79.76 416.349-37.85-77.435c-138.03-345.448-736.88-212.439-946.97-226.772z"/></g><path d="M166.464-124.263c47.634 55.356 52.731 157.134-8.117 188.3-85.532 43.808-141.193 50.282-172.579 167.322-31.385 117.04-82.266 555.923-249.326 638.569" stroke="#FCE673" stroke-linecap="round" stroke-linejoin="round"/><path d="M254.268-5.838c55.55 64.623 9.393 176.885-69.996 184.68-99.238 9.743-168.786 53.471-205.46 190.164C-57.86 505.699-24.02 845.877-320 1018.02" stroke="#FCE673" stroke-linecap="round" stroke-linejoin="round"/><path d="M221.919-18.098c42.928 55.968 1.218 158.389-63.778 168.274-81.245 12.356-147.994 61.059-182.864 185.059-34.869 124-11.201 421.102-258.728 586.351" stroke="#FCE673" stroke-linecap="round" stroke-linejoin="round"/></svg>