<svg width="105" height="105" fill="none" xmlns="http://www.w3.org/2000/svg"><g clip-path="url(#clip0)"><path d="M86.896 56.12H7.241l11.043-31.373a7.241 7.241 0 016.825-4.833h34.632L86.896 56.12z" fill="#90BAE1"/><path d="M48.88 19.914v7.241a1.81 1.81 0 11-3.621 0v-7.241h3.62z" fill="#35495E"/><path d="M17.466 50.69a1.81 1.81 0 01-1.707-2.412l6.796-19.313a5.444 5.444 0 015.123-3.62h3.098a1.81 1.81 0 010 3.62h-3.098a1.81 1.81 0 00-1.707 1.21L19.175 49.48a1.81 1.81 0 01-1.709 1.21z" fill="#B0D3F0"/><path d="M54.31 34.397H39.828c-1 0-1.81-.811-1.81-1.81v-3.622c0-1 .81-1.81 1.81-1.81H54.31" fill="#2C3E50"/><path d="M5.43 88.707h18.104v12.672c0 2-1.62 3.621-3.62 3.621H9.052a3.62 3.62 0 01-3.621-3.621V88.707zm65.173 0h18.104v12.672c0 2-1.621 3.621-3.62 3.621H74.223c-2 0-3.62-1.621-3.62-3.621V88.707z" fill="#35495E"/><path d="M69.028 56.12H7.241A7.243 7.243 0 000 63.363v27.155c0 1 .81 1.81 1.81 1.81h90.518c1 0 1.81-.81 1.81-1.81V63.362a7.183 7.183 0 00-4.58-6.716l-20.53-.525z" fill="#2980BA"/><path d="M10.862 63.362h7.241c4 0 7.242 3.242 7.242 7.242 0 2-1.621 3.62-3.621 3.62H10.862c-2 0-3.62-1.62-3.62-3.62v-3.621c0-2 1.62-3.62 3.62-3.62zm65.172 0h7.242c2 0 3.62 1.621 3.62 3.62v3.622c0 2-1.62 3.62-3.62 3.62H72.414c-2 0-3.62-1.62-3.62-3.62 0-4 3.241-7.242 7.24-7.242z" fill="#F9EAB0"/><path d="M10.862 85.086h3.62c1 0 1.811.81 1.811 1.81v5.432H9.052v-5.431c0-1 .81-1.81 1.81-1.81zm68.793 0h3.62c1 0 1.811.81 1.811 1.81v5.432h-7.241v-5.431c0-1 .81-1.81 1.81-1.81z" fill="#FCCD40"/><path d="M59.742 74.224H34.397c-1 0-1.81.81-1.81 1.81v7.242c0 1 .81 1.81 1.81 1.81h25.345c1 0 1.81-.81 1.81-1.81v-7.241c0-1-.81-1.81-1.81-1.81z" fill="#A5A5A4"/><path d="M57.931 74.224H36.207c-1 0-1.81.81-1.81 1.81v7.242c0 1 .81 1.81 1.81 1.81h21.724c1 0 1.81-.81 1.81-1.81v-7.241c0-1-.81-1.81-1.81-1.81z" fill="#D1D4D1"/><path d="M80.18 63.232l17.816-12.684a16.576 16.576 0 007.004-13.5V11.464a.906.906 0 00-.543-.83L80.017.073a.905.905 0 00-.724 0l-24.44 10.558a.905.905 0 00-.543.831V37.05a16.576 16.576 0 007.005 13.5L79.13 63.231a.905.905 0 001.05 0z" fill="#FDBE03"/><path d="M65.513 44.65a9.374 9.374 0 01-3.961-7.601v-21.42l18.103-7.82 18.104 7.82v21.42a9.374 9.374 0 01-3.961 7.603L79.655 54.718 65.513 44.65z" fill="#955BA5"/><path d="M65.513 44.65a9.374 9.374 0 01-3.961-7.601v-21.42l18.103-7.82 18.104 7.82v21.42a9.374 9.374 0 01-3.961 7.603L79.655 54.718 65.513 44.65z" fill="#FFEF9C"/><path d="M76.034 41.556a1.81 1.81 0 01-1.086-.362l-7.241-5.43a1.81 1.81 0 012.172-2.897l5.839 4.377 13.385-16.733a1.81 1.81 0 012.828 2.261L77.448 40.876a1.81 1.81 0 01-1.414.68z" fill="#3D324C"/></g><defs><clipPath id="clip0"><path fill="#fff" d="M0 0h105v105H0z"/></clipPath></defs></svg>