<svg width="105" height="105" fill="none" xmlns="http://www.w3.org/2000/svg"><g clip-path="url(#clip0)"><path d="M97.759 0H7.24A7.24 7.24 0 000 7.241v72.414c0 4 3.242 7.242 7.241 7.242H97.76a7.242 7.242 0 007.241-7.242V7.241A7.243 7.243 0 0097.759 0z" fill="#90BAE1"/><path d="M105 7.241v13.09C35.139 24.891 8.6 66.746.85 83.04A7.113 7.113 0 010 79.654V7.241A7.241 7.241 0 017.241 0H97.76A7.24 7.24 0 01105 7.241z" fill="#B0D3F0"/><path d="M63.764 85.086H41.236L38.017 99.57h28.966l-3.22-14.483zM105 7.241v7.242H0V7.24A7.24 7.24 0 017.241 0H97.76A7.24 7.24 0 01105 7.241z" fill="#35495E"/><path d="M68.793 97.759H36.207a3.62 3.62 0 100 7.241h32.586a3.62 3.62 0 000-7.241z" fill="#547580"/><path d="M9.052 9.052a1.81 1.81 0 100-3.62 1.81 1.81 0 000 3.62z" fill="#F3D55B"/><path d="M16.293 9.052a1.81 1.81 0 100-3.62 1.81 1.81 0 000 3.62z" fill="#FF5364"/><path d="M23.535 9.052a1.81 1.81 0 100-3.62 1.81 1.81 0 000 3.62z" fill="#24AE5F"/><path d="M28.965 28.965H7.241a1.81 1.81 0 110-3.62h21.724a1.81 1.81 0 010 3.62zm16.293 0h-9.051a1.81 1.81 0 010-3.62h9.051a1.81 1.81 0 110 3.62zm25.345 0H52.5a1.81 1.81 0 010-3.62h18.103a1.81 1.81 0 010 3.62z" fill="#285680"/><path d="M88.707 39.828l3.179-2.385a12.673 12.673 0 004.888-8.054l.985-5.855-9.052-3.62-9.052 3.62.976 5.855a12.672 12.672 0 004.888 8.054l3.188 2.385z" fill="#FCCD40"/><path d="M39.828 36.207H7.24a1.81 1.81 0 110-3.62h32.587a1.81 1.81 0 010 3.62zm30.776 0H47.069a1.81 1.81 0 010-3.62h23.535a1.81 1.81 0 010 3.62zM28.965 56.12H7.241a1.81 1.81 0 010-3.62h21.724a1.81 1.81 0 010 3.62zm16.293 0h-9.051a1.81 1.81 0 010-3.62h9.051a1.81 1.81 0 110 3.62zm25.345 0H52.5a1.81 1.81 0 010-3.62h18.103a1.81 1.81 0 010 3.62z" fill="#285680"/><path d="M88.707 66.983l3.179-2.385a12.673 12.673 0 004.888-8.054l.985-5.854-9.052-3.621-9.052 3.62.976 5.855A12.672 12.672 0 0085.52 64.6l3.188 2.384z" fill="#FCCD40"/><path d="M39.828 63.362H7.24a1.81 1.81 0 010-3.62h32.587a1.81 1.81 0 010 3.62zm30.776 0H47.069a1.81 1.81 0 010-3.62h23.535a1.81 1.81 0 110 3.62z" fill="#285680"/><path d="M105 72.414v7.241c0 4-3.242 7.242-7.241 7.242H7.24A7.242 7.242 0 010 79.654v-7.241h105z" fill="#547580"/><path d="M52.5 81.466a1.81 1.81 0 100-3.621 1.81 1.81 0 000 3.62z" fill="#2C3E50"/></g><defs><clipPath id="clip0"><path fill="#fff" d="M0 0h105v105H0z"/></clipPath></defs></svg>