<svg width="105" height="105" fill="none" xmlns="http://www.w3.org/2000/svg"><g clip-path="url(#clip0)"><path d="M20.108 26.79L.007 41.125l52.5 51.107v-65.44h-32.4z" fill="#4BA3DE"/><path d="M84.902 26.79H52.507v65.441l52.486-51.107-20.09-14.333z" fill="#2980BA"/><path d="M19.475 0v88.187h33.032l7.126-44.926L52.507 0H19.475z" fill="#E4F4FE"/><path d="M52.507 0h33.031v88.187H52.507V0z" fill="#D3E7FD"/><path d="M42.57 25.832c0-5.548 3.99-9.764 9.937-9.847L55.365 14l-2.858-1.763c-8.892.08-14.51 6.036-14.51 13.595 0 7.71 5.667 13.628 14.51 13.655l2.316-1.916-2.316-1.83c-5.983-.028-9.938-4.148-9.938-9.91z" fill="#FCCD40"/><path d="M52.421 28.93c-1.21 0-2.094-.915-2.094-2.714 0-1.77.885-2.684 2.094-2.684.03 0 .057.003.086.004l1.775-1.137-1.775-3.259a5.804 5.804 0 00-1.708-.24c-3.274 0-6.253 2.773-6.253 7.316 0 4.542 3.067 7.344 6.253 7.344.634 0 1.2-.078 1.708-.223l1.775-2.268-1.775-2.143c-.029 0-.057.004-.086.004z" fill="#FCCD40"/><path d="M34.791 47.274v6.144h17.716l4.89-3.045-4.89-3.099H34.79zm0 18.433h17.716l4.28-2.94-4.28-3.204H34.79v6.144z" fill="#D3E7FD"/><path d="M37.116 73.06L.006 41.125V105l37.681-8.908-.57-23.031z" fill="#74DBF2"/><path d="M67.897 73.06l5.756 23.641 31.34 8.299V41.124L67.897 73.061z" fill="#38BDF0"/><path d="M37.116 73.061l-37.11 31.94h52.5l6.72-7.892-6.72-10.798-15.39-13.25z" fill="#98F9FD"/><path d="M67.897 73.06l-15.39 13.25V105h52.486L67.897 73.06z" fill="#74DBF2"/><path d="M52.507 47.274h17.572v6.144H52.507v-6.144zm0 12.289h17.572v6.144H52.507v-6.144z" fill="#B5D7FB"/><path d="M52.687 15.98c6.076 0 10.058 3.776 10.058 9.115 0 3.304-.679 4.13-1.505 4.13-.649 0-1.15-.384-1.15-1.623v-8.436h-5.663v1.18a4.204 4.204 0 00-1.92-1.206v4.396c1.166.043 2.038.953 2.038 2.68 0 1.756-.872 2.667-2.038 2.71v4.411c1.285-.368 2.183-1.18 2.775-2.343.826 1.712 2.448 2.567 4.66 2.567 3.776 0 6.932-2.92 6.932-8.554 0-7.08-5.693-12.772-14.187-12.772-.061 0-.12.003-.18.004v3.746c.06-.001.119-.004.18-.004zm7.079 22.094l-1.24-3.628a14.223 14.223 0 01-5.957 1.297h-.062v3.745l.062.002c2.625 0 5.427-.561 7.197-1.416z" fill="#FDBE03"/></g><defs><clipPath id="clip0"><path fill="#fff" d="M0 0h105v105H0z"/></clipPath></defs></svg>