<svg width="1440" height="719" fill="none" xmlns="http://www.w3.org/2000/svg"><path opacity=".15" d="M0-8h1440v727H0V-8z" fill="#FFDE32"/><path d="M-196 652c46-84.614 169.127-138.47 236-78 94 85 128 150.614 287 134.614s724-158.387 904 9" stroke="#DFE4E5" stroke-linecap="round" stroke-linejoin="round"/><path d="M-91 488.372c53.727-98.708 213.739-94.259 260.457 0 58.399 117.822 144.829 183.15 330.536 164.485C685.7 634.192 1089.38 433.463 1440 718" stroke="#DFE4E5" stroke-linecap="round" stroke-linejoin="round"/><path d="M-91 533.993c48.954-79.096 194.752-75.531 237.321 0C199.532 628.407 290.789 687.957 460 673c169.211-14.957 524.527-183.007 844 45" stroke="#DFE4E5" stroke-linecap="round" stroke-linejoin="round"/><path d="M652.431 118.765C502.615 133.07 613.153-22.531 687.15-102.119L1573-120l-6.31 345-45.24-56.799c-174.65-257.698-681.749-67.317-869.019-49.436z" stroke="#EAE1B7" stroke-linecap="round" stroke-linejoin="round"/><path d="M570.372 187.973C394.508 206.424 524.265 5.722 611.127-96.936L1651-120l-7.41 445-53.11-73.262c-205.01-332.394-800.277-86.829-1020.108-63.765z" stroke="#EAE1B7" stroke-linecap="round" stroke-linejoin="round"/><path d="M407.133 275.174C181.43 298.849 347.96 41.319 459.437-90.406L1794-120l-9.51 571-68.15-94.006c-263.11-426.51-1027.079-111.415-1309.207-81.82z" stroke="#EAE1B7" stroke-linecap="round" stroke-linejoin="round"/><path opacity=".15" d="M0-8h412v727H0V-8z" fill="#1C5BF6"/></svg>