<svg width="22" height="22" fill="none" xmlns="http://www.w3.org/2000/svg"><path d="M18.67 3.107v14.596a2.632 2.632 0 01-2.621 2.625H5.444c-.24 0-.473-.043-.696-.107.335 1.018 1.29 1.766 2.415 1.766H17.9a2.565 2.565 0 002.556-2.557V5.534a2.56 2.56 0 00-1.787-2.427z" fill="#1C5BF6"/><path d="M14.832 0H4.1a2.566 2.566 0 00-2.557 2.557v13.9A2.566 2.566 0 004.1 19.014h10.737a2.566 2.566 0 002.557-2.557v-13.9A2.57 2.57 0 0014.833 0zm.817 15.03a2.019 2.019 0 01-2.011 2.011H5.194a2.019 2.019 0 01-2.01-2.01V4.098a2.02 2.02 0 012.01-2.01h8.448c1.104 0 2.01.906 2.01 2.01V15.03h-.003z" fill="#1C5BF6"/><path d="M13.742 5.049H8.186a.422.422 0 01-.421-.421v-.03c0-.232.189-.421.42-.421h5.557a.42.42 0 01.42.42v.03a.42.42 0 01-.42.422zm-.001 2.479H5.173a.422.422 0 01-.421-.42v-.03c0-.233.189-.422.421-.422h8.572c.232 0 .421.19.421.421v.03a.428.428 0 01-.425.421zm0 2.475H5.173a.422.422 0 01-.421-.421v-.03c0-.232.189-.421.421-.421h8.572c.232 0 .421.189.421.42v.031a.425.425 0 01-.425.421zm0 2.479H5.173a.422.422 0 01-.421-.42v-.03c0-.233.189-.422.421-.422h8.572c.232 0 .421.19.421.421v.03a.426.426 0 01-.425.421zm0 2.48H5.173a.422.422 0 01-.421-.421v-.03c0-.232.189-.421.421-.421h8.572c.232 0 .421.189.421.42v.03a.428.428 0 01-.425.422z" fill="#1C5BF6"/></svg>