<svg width="64" height="53" fill="none" xmlns="http://www.w3.org/2000/svg"><g opacity=".25"><ellipse cx="32" cy="26.5" rx="32" ry="26.5" fill="#fff" fill-opacity=".4"/><path d="M63.75 26.5c0 14.455-14.169 26.25-31.75 26.25S.25 40.955.25 26.5 14.419.25 32 .25 63.75 12.045 63.75 26.5z" stroke="#fff" stroke-opacity=".2" stroke-width=".5" stroke-miterlimit="4.453" stroke-linecap="round"/></g><g opacity=".25"><path d="M54 26.5C54 39.479 42.136 50 27.5 50S1 39.479 1 26.5 12.864 3 27.5 3 54 13.521 54 26.5z" fill="#fff" fill-opacity=".5"/><path d="M53.75 26.5c0 12.813-11.723 23.25-26.25 23.25S1.25 39.313 1.25 26.5 12.973 3.25 27.5 3.25 53.75 13.687 53.75 26.5z" stroke="#fff" stroke-opacity=".2" stroke-width=".5" stroke-miterlimit="4.453" stroke-linecap="round"/></g><g opacity=".25"><path d="M47 26.5C47 38.374 36.703 48 24 48S1 38.374 1 26.5 11.297 5 24 5s23 9.626 23 21.5z" fill="#fff" fill-opacity=".6"/><path d="M46.75 26.5c0 11.72-10.17 21.25-22.75 21.25S1.25 38.22 1.25 26.5 11.42 5.25 24 5.25s22.75 9.53 22.75 21.25z" stroke="#fff" stroke-opacity=".2" stroke-width=".5" stroke-miterlimit="4.453" stroke-linecap="round"/></g><mask id="a" style="mask-type:alpha" maskUnits="userSpaceOnUse" x="1" y="6" width="41" height="41"><circle cx="21.5" cy="26.5" r="20.5" fill="#47B8F8"/></mask><g mask="url(#a)"><circle cx="21.5" cy="26.5" r="20.5" fill="#E05100"/><path fill-rule="evenodd" clip-rule="evenodd" d="M16.94 37.06L7 47l-4.95-4.95 9.605-9.604a11.546 11.546 0 005.285 4.614zm-5.7-15.76a11.551 11.551 0 014.915-4.985l-7.33-7.332-4.95 4.95L11.24 21.3zm16.206-4.646a11.546 11.546 0 014.614 5.286L42 12l-4.95-4.95-9.604 9.604zm4.24 15.19l12.138 12.14-4.95 4.95L26.701 36.76a11.55 11.55 0 004.984-4.915z" fill="#fff"/><mask id="b" style="mask-type:alpha" maskUnits="userSpaceOnUse" x="1" y="6" width="41" height="41"><circle cx="21.5" cy="26.5" r="20.5" fill="#C4C4C4"/></mask><g mask="url(#b)"><g filter="url(#filter0_f)"><path d="M18.304 7.136C32.038 5.82 40 13.557 40.497 28.656 40 38.116 35.39 40.486 31.05 45.2c4.498-1.747 14.862-8.296 14.773-21.25C44.335 11.295 33.204 2.208 20.96 3.654c-6.892.814-12.668 4.791-16.135 10.37 3.448-3.716 8.127-6.256 13.479-6.888z" fill="#DFE8FF" fill-opacity=".8"/></g><g filter="url(#filter1_f)"><path d="M5.69 13.234c-9.887 9.897-7.593 21.46 2.09 30.873 5.94 4.41 12.341 3.456 18.75 3.033-4.244 2.414-15.95 6.386-25.79-1.835-8.707-9.125-8.451-23.536.572-32.188C6.39 8.247 13.164 6.24 19.669 7.043a22.37 22.37 0 00-13.98 6.19z" fill="#000"/></g></g><g filter="url(#filter2_dd)"><circle cx="21.5" cy="26.5" r="11.5" fill="#1C5BF6"/></g></g><defs><filter id="filter0_f" x=".825" y="-.497" width="48.998" height="49.697" filterUnits="userSpaceOnUse" color-interpolation-filters="sRGB"><feFlood flood-opacity="0" result="BackgroundImageFix"/><feBlend in="SourceGraphic" in2="BackgroundImageFix" result="shape"/><feGaussianBlur stdDeviation="2" result="effect1_foregroundBlur"/></filter><filter id="filter1_f" x="-13.627" y="-1.129" width="48.157" height="59.378" filterUnits="userSpaceOnUse" color-interpolation-filters="sRGB"><feFlood flood-opacity="0" result="BackgroundImageFix"/><feBlend in="SourceGraphic" in2="BackgroundImageFix" result="shape"/><feGaussianBlur stdDeviation="4" result="effect1_foregroundBlur"/></filter><filter id="filter2_dd" x="3" y="9" width="37" height="35" filterUnits="userSpaceOnUse" color-interpolation-filters="sRGB"><feFlood flood-opacity="0" result="BackgroundImageFix"/><feColorMatrix in="SourceAlpha" values="0 0 0 0 0 0 0 0 0 0 0 0 0 0 0 0 0 0 127 0" result="hardAlpha"/><feMorphology radius="1" operator="dilate" in="SourceAlpha" result="effect1_dropShadow"/><feOffset dx="-2" dy="1"/><feGaussianBlur stdDeviation="2"/><feComposite in2="hardAlpha" operator="out"/><feColorMatrix values="0 0 0 0 1 0 0 0 0 1 0 0 0 0 1 0 0 0 0.38 0"/><feBlend in2="BackgroundImageFix" result="effect1_dropShadow"/><feColorMatrix in="SourceAlpha" values="0 0 0 0 0 0 0 0 0 0 0 0 0 0 0 0 0 0 127 0" result="hardAlpha"/><feMorphology radius="1" operator="dilate" in="SourceAlpha" result="effect2_dropShadow"/><feOffset dx="2" dy="-1"/><feGaussianBlur stdDeviation="2"/><feComposite in2="hardAlpha" operator="out"/><feColorMatrix values="0 0 0 0 0 0 0 0 0 0 0 0 0 0 0 0 0 0 0.25 0"/><feBlend in2="effect1_dropShadow" result="effect2_dropShadow"/><feBlend in="SourceGraphic" in2="effect2_dropShadow" result="shape"/></filter></defs></svg>