<svg width="198" height="41" fill="none" xmlns="http://www.w3.org/2000/svg"><path d="M67.716 16.4l-5.058 9.486c-.6 1.128-1.338 1.986-2.214 2.574a4.977 4.977 0 01-2.862.882c-.804 0-1.62-.168-2.448-.504l.99-3.06c.528.144.96.216 1.296.216.312 0 .576-.054.792-.162.228-.108.444-.288.648-.54L54.036 16.4h4.482l2.502 5.31 2.592-5.31h4.104zm5.193 9.324h-.774V29h-4.068v-9.846h4.068v3.456h.882l2.16-3.456h4.284l-3.168 4.716L79.66 29h-4.788l-1.962-3.276zm14.226-6.75c.864 0 1.656.21 2.376.63.732.408 1.308 1.002 1.728 1.782.432.78.648 1.68.648 2.7 0 1.02-.216 1.92-.648 2.7a4.492 4.492 0 01-1.728 1.782 4.736 4.736 0 01-2.376.612c-1.092 0-1.926-.282-2.502-.846v4.158h-4.068V19.154h3.87v.81c.588-.66 1.488-.99 2.7-.99zm-.972 7.038c.468 0 .852-.168 1.152-.504.3-.336.45-.81.45-1.422 0-.612-.15-1.086-.45-1.422a1.453 1.453 0 00-1.152-.522c-.468 0-.852.174-1.152.522-.3.336-.45.81-.45 1.422 0 .612.15 1.086.45 1.422.3.336.684.504 1.152.504zm13.539 3.276c-1.332 0-2.532-.276-3.6-.828a6.406 6.406 0 01-2.52-2.34c-.6-1.008-.9-2.148-.9-3.42 0-1.272.3-2.406.9-3.402a6.238 6.238 0 012.52-2.34c1.068-.564 2.268-.846 3.6-.846 1.224 0 2.316.216 3.276.648a6.08 6.08 0 012.376 1.872l-2.682 2.394c-.78-.984-1.698-1.476-2.754-1.476-.888 0-1.602.288-2.142.864-.54.564-.81 1.326-.81 2.286s.27 1.728.81 2.304c.54.564 1.254.846 2.142.846 1.056 0 1.974-.492 2.754-1.476l2.682 2.394a6.08 6.08 0 01-2.376 1.872c-.96.432-2.052.648-3.276.648zm15.834-6.966h-3.006V29h-4.05v-6.678h-3.006v-3.168h10.062v3.168zm7.74-3.348c.864 0 1.656.21 2.376.63.732.408 1.308 1.002 1.728 1.782.432.78.648 1.68.648 2.7 0 1.02-.216 1.92-.648 2.7a4.492 4.492 0 01-1.728 1.782 4.736 4.736 0 01-2.376.612c-1.092 0-1.926-.282-2.502-.846v4.158h-4.068V19.154h3.87v.81c.588-.66 1.488-.99 2.7-.99zm-.972 7.038c.468 0 .852-.168 1.152-.504.3-.336.45-.81.45-1.422 0-.612-.15-1.086-.45-1.422a1.453 1.453 0 00-1.152-.522c-.468 0-.852.174-1.152.522-.3.336-.45.81-.45 1.422 0 .612.15 1.086.45 1.422.3.336.684.504 1.152.504zm10.989-7.038c1.728 0 3.048.39 3.96 1.17.912.768 1.368 1.956 1.368 3.564V29h-3.78v-1.296c-.468.984-1.398 1.476-2.79 1.476-.78 0-1.446-.132-1.998-.396-.54-.276-.954-.642-1.242-1.098a3.025 3.025 0 01-.414-1.566c0-.972.372-1.71 1.116-2.214.744-.504 1.872-.756 3.384-.756h1.638c-.132-.768-.75-1.152-1.854-1.152-.444 0-.894.072-1.35.216a3.652 3.652 0 00-1.17.558l-1.296-2.682c.564-.348 1.242-.618 2.034-.81a9.704 9.704 0 012.394-.306zm-.018 7.758c.288 0 .546-.078.774-.234.228-.156.396-.39.504-.702v-.684h-1.008c-.828 0-1.242.276-1.242.828 0 .228.084.42.252.576.18.144.42.216.72.216zM146.542 29l-1.35-2.106L143.68 29h-4.41l3.726-4.878-3.618-4.968h4.59l1.404 2.088 1.476-2.088h4.266l-3.618 4.788L151.204 29h-4.662zm10.379.18c-1.092 0-2.076-.216-2.952-.648-.864-.444-1.542-1.05-2.034-1.818-.492-.78-.738-1.662-.738-2.646s.246-1.86.738-2.628a4.984 4.984 0 012.034-1.818c.876-.432 1.86-.648 2.952-.648 1.104 0 2.088.216 2.952.648.876.432 1.554 1.038 2.034 1.818.492.768.738 1.644.738 2.628 0 .984-.246 1.866-.738 2.646-.48.768-1.158 1.374-2.034 1.818-.864.432-1.848.648-2.952.648zm0-3.168c.468 0 .852-.168 1.152-.504.3-.348.45-.828.45-1.44s-.15-1.086-.45-1.422a1.475 1.475 0 00-1.152-.504c-.468 0-.852.168-1.152.504-.3.336-.45.81-.45 1.422 0 .612.15 1.092.45 1.44.3.336.684.504 1.152.504zm15.352-2.178c1.08.408 1.62 1.17 1.62 2.286 0 .9-.354 1.608-1.062 2.124-.708.504-1.746.756-3.114.756h-5.814v-9.846h5.526c1.32 0 2.346.228 3.078.684.732.444 1.098 1.074 1.098 1.89 0 .456-.114.864-.342 1.224-.228.36-.558.654-.99.882zm-4.806-.792h1.602c.588 0 .882-.234.882-.702 0-.228-.072-.396-.216-.504-.132-.108-.354-.162-.666-.162h-1.602v1.368zm1.89 3.438c.588 0 .882-.246.882-.738 0-.468-.294-.702-.882-.702h-1.89v1.44h1.89zm10.709-.756h-.774V29h-4.068v-9.846h4.068v3.456h.882l2.16-3.456h4.284l-3.168 4.716 3.366 5.13h-4.788l-1.962-3.276zm11.674-6.75c1.728 0 3.048.39 3.96 1.17.912.768 1.368 1.956 1.368 3.564V29h-3.78v-1.296c-.468.984-1.398 1.476-2.79 1.476-.78 0-1.446-.132-1.998-.396-.54-.276-.954-.642-1.242-1.098a3.025 3.025 0 01-.414-1.566c0-.972.372-1.71 1.116-2.214.744-.504 1.872-.756 3.384-.756h1.638c-.132-.768-.75-1.152-1.854-1.152-.444 0-.894.072-1.35.216a3.652 3.652 0 00-1.17.558l-1.296-2.682c.564-.348 1.242-.618 2.034-.81a9.704 9.704 0 012.394-.306zm-.018 7.758c.288 0 .546-.078.774-.234.228-.156.396-.39.504-.702v-.684h-1.008c-.828 0-1.242.276-1.242.828 0 .228.084.42.252.576.18.144.42.216.72.216z" fill="#333"/><mask id="a" style="mask-type:alpha" maskUnits="userSpaceOnUse" x="0" y="0" width="41" height="41"><circle cx="20.5" cy="20.5" r="20.5" fill="#47B8F8"/></mask><g mask="url(#a)"><circle cx="20.5" cy="20.5" r="20.5" fill="#1C5BF6"/><circle cx="20.5" cy="20.5" r="11.5" fill="#fff"/><path stroke="#fff" stroke-width="7" d="M5.349 5.458l35 35M3.525 38.525l35-35"/></g></svg>